if (_typeface_js && _typeface_js.loadFace) _typeface_js.loadFace({"glyphs":{"S":{"x_min":77.78125,"x_max":752.78125,"ha":833,"o":"m 638 926 l 695 811 l 752 811 l 752 926 l 695 1041 l 320 1041 b 77 798 187 1041 77 933 l 77 758 l 644 219 b 509 102 627 168 566 100 l 191 116 l 134 230 l 77 230 l 77 115 l 134 0 l 509 0 b 752 243 643 0 752 109 l 752 283 l 186 822 b 320 940 201 875 263 943 l 638 926 "},"/":{"x_min":77.78125,"x_max":755.5625,"ha":833,"o":"m 77 29 l 654 1072 l 755 1015 l 179 -26 l 77 29 "},"y":{"x_min":77.78125,"x_max":752.78125,"ha":833,"o":"m 644 694 l 586 636 l 586 208 l 456 115 l 426 115 b 243 298 325 115 243 197 l 243 636 l 186 694 l 77 694 l 77 636 l 127 609 l 127 298 b 215 87 127 218 158 143 b 413 0 268 33 338 2 l 502 0 l 586 113 l 586 -138 l 456 -231 l 426 -231 b 243 -48 325 -231 243 -150 l 127 -48 b 215 -259 127 -129 158 -204 b 413 -347 268 -313 338 -344 l 502 -347 l 515 -330 l 701 -138 l 701 609 l 752 636 l 752 694 l 644 694 "},"Á":{"x_min":77.78125,"x_max":752.78125,"ha":833,"o":"m 245 695 b 415 922 245 802 318 895 b 584 695 513 895 584 802 l 584 58 l 644 0 l 752 0 l 752 58 l 701 86 l 701 695 b 598 943 701 788 665 876 b 415 1041 563 977 512 1025 b 231 943 318 1025 266 977 b 129 695 165 876 129 788 l 129 86 l 77 58 l 77 0 l 186 0 l 245 58 l 245 695 m 223 463 l 606 463 l 606 579 l 223 579 l 223 463 m 287 1129 l 320 1081 l 541 1236 l 555 1316 l 522 1363 l 476 1330 l 287 1129 "},"g":{"x_min":77.78125,"x_max":751.390625,"ha":833,"o":"m 751 636 l 700 609 l 700 -75 l 502 -347 l 426 -347 b 180 -244 333 -347 245 -311 b 77 1 113 -179 77 -91 l 193 1 b 426 -231 193 -126 298 -231 l 455 -231 l 584 -75 l 584 113 l 501 0 l 426 0 b 180 101 333 0 245 36 b 79 347 115 166 79 254 b 180 593 79 440 115 526 b 426 694 245 658 333 694 l 501 694 l 584 577 l 584 636 l 643 694 l 751 694 l 751 636 m 455 579 l 426 579 b 194 347 298 579 194 475 b 426 115 194 219 298 115 l 455 115 l 584 208 l 584 487 l 455 579 "},"–":{"x_min":252.78125,"x_max":580.5625,"ha":833,"o":"m 252 359 l 252 301 l 523 301 l 580 359 l 580 416 l 523 416 l 252 359 "},"ë":{"x_min":77.78125,"x_max":751.390625,"ha":833,"o":"m 751 569 l 751 288 l 201 288 b 425 115 226 188 318 115 l 615 115 l 751 212 l 751 126 l 661 0 l 425 0 b 179 101 333 0 245 36 b 77 347 113 166 77 254 b 179 593 77 440 113 527 b 425 694 245 658 333 694 l 661 694 l 751 569 m 425 579 b 201 405 318 579 226 505 l 651 405 l 651 552 l 615 579 l 425 579 m 491 1026 l 491 868 l 658 868 l 658 968 l 598 1026 l 491 1026 m 175 1026 l 175 868 l 341 868 l 341 968 l 281 1026 l 175 1026 "},"Î":{"x_min":77.78125,"x_max":752.78125,"ha":833,"o":"m 752 1041 l 77 1041 l 77 984 l 186 926 l 366 926 l 366 115 l 186 115 l 77 58 l 77 0 l 752 0 l 752 56 l 695 115 l 481 115 l 481 926 l 695 926 l 752 986 l 752 1041 m 194 1156 l 227 1109 l 448 1263 l 462 1344 l 429 1358 l 383 1358 l 194 1156 m 429 1358 l 395 1344 l 409 1263 l 630 1109 l 663 1156 l 475 1358 l 429 1358 "},"e":{"x_min":77.78125,"x_max":751.390625,"ha":833,"o":"m 751 569 l 751 288 l 201 288 b 425 115 226 188 318 115 l 615 115 l 751 212 l 751 126 l 661 0 l 425 0 b 179 101 333 0 245 36 b 77 347 113 166 77 254 b 179 593 77 440 113 527 b 425 694 245 658 333 694 l 661 694 l 751 569 m 425 579 b 201 405 318 579 226 505 l 651 405 l 651 552 l 615 579 l 425 579 "},"Ã":{"x_min":77.78125,"x_max":752.78125,"ha":833,"o":"m 245 695 b 415 922 245 802 318 895 b 584 695 513 895 584 802 l 584 58 l 644 0 l 752 0 l 752 58 l 701 86 l 701 695 b 598 943 701 788 665 876 b 415 1041 563 977 512 1025 b 231 943 318 1025 266 977 b 129 695 165 876 129 788 l 129 86 l 77 58 l 77 0 l 186 0 l 245 58 l 245 695 m 223 463 l 606 463 l 606 579 l 223 579 l 223 463 m 384 1261 l 351 1308 l 187 1208 l 187 1113 l 252 1113 l 384 1261 m 498 1113 l 531 1127 l 518 1208 l 351 1308 l 318 1261 l 452 1113 l 498 1113 m 676 1261 l 643 1308 l 479 1208 l 465 1127 l 498 1113 l 544 1113 l 676 1261 "},"J":{"x_min":77.78125,"x_max":752.78125,"ha":833,"o":"m 640 1041 l 583 984 l 583 522 b 519 219 581 406 561 300 b 404 115 486 154 444 115 l 337 115 l 170 261 l 193 500 l 136 558 l 77 558 l 77 188 l 294 0 l 404 0 b 533 50 450 0 494 16 b 623 168 568 77 597 118 b 698 522 672 262 698 388 l 698 930 l 752 987 l 752 1041 l 640 1041 "},"»":{"x_min":180.5625,"x_max":652.78125,"ha":833,"o":"m 652 376 l 638 409 l 558 395 l 402 176 l 450 143 l 652 330 l 652 376 m 430 376 l 416 409 l 336 395 l 180 176 l 227 143 l 430 330 l 430 376 m 230 612 l 183 579 l 336 356 l 416 343 l 430 376 l 430 422 l 230 612 m 452 612 l 405 579 l 558 356 l 638 343 l 652 376 l 652 422 l 452 612 "},"©":{"x_min":77.78125,"x_max":754.171875,"ha":833,"o":"m 683 558 b 754 354 729 480 754 433 l 754 340 b 683 136 754 259 729 213 b 600 40 659 95 631 62 b 483 0 563 13 523 0 l 348 0 b 231 40 308 0 268 13 b 148 136 200 62 172 95 b 77 340 102 213 77 259 l 77 354 b 148 558 77 433 102 480 b 231 654 172 598 200 630 b 348 694 268 680 308 694 l 483 694 b 600 654 523 694 563 680 b 683 558 631 630 659 598 m 401 465 b 286 348 337 465 286 412 b 401 233 286 284 337 233 l 497 233 l 565 281 l 565 238 l 519 175 l 401 175 b 279 226 355 175 312 193 b 227 348 245 259 227 302 b 279 472 227 395 245 438 b 401 523 312 505 355 523 l 519 523 l 565 461 l 565 415 l 497 465 l 401 465 m 659 354 b 601 511 659 419 636 451 b 483 598 569 563 525 598 l 348 598 b 230 511 306 598 262 563 b 172 354 195 451 172 419 l 172 340 b 230 183 172 275 195 241 b 348 94 261 130 306 94 l 483 94 b 601 183 525 94 570 130 b 659 340 636 241 659 275 l 659 354 "},"ò":{"x_min":77.78125,"x_max":754.171875,"ha":833,"o":"m 483 694 b 600 654 523 694 563 680 b 683 558 631 630 659 598 b 754 354 729 480 754 433 l 754 340 b 683 136 754 259 729 213 b 600 40 659 95 631 62 b 483 0 563 13 523 0 l 348 0 b 231 40 308 0 268 13 b 148 136 200 62 172 95 b 77 340 102 213 77 259 l 77 354 b 148 558 77 433 102 480 b 231 654 172 598 200 630 b 348 694 268 680 308 694 l 483 694 m 348 577 b 248 500 313 577 277 550 b 193 354 213 440 193 412 l 193 340 b 248 194 193 281 213 254 b 348 115 277 144 313 115 l 483 115 b 583 194 518 115 554 144 b 638 340 618 254 638 281 l 638 354 b 583 500 638 412 618 440 b 483 577 554 550 518 577 l 348 577 m 545 920 l 512 873 l 291 1027 l 277 1108 l 311 1155 l 356 1122 l 545 920 "},"^":{"x_min":58.328125,"x_max":777.78125,"ha":833,"o":"m 418 1041 l 384 1027 l 398 947 l 716 393 l 777 426 l 463 1041 l 418 1041 m 58 426 l 119 393 l 437 947 l 451 1027 l 418 1041 l 372 1041 l 58 426 "},"«":{"x_min":180.5625,"x_max":652.78125,"ha":833,"o":"m 402 383 l 416 350 l 497 363 l 652 583 l 605 616 l 402 429 l 402 383 m 380 147 l 427 180 l 275 402 l 194 416 l 180 383 l 180 337 l 380 147 m 180 383 l 194 350 l 275 363 l 430 583 l 383 616 l 180 429 l 180 383 m 602 147 l 650 180 l 497 402 l 416 416 l 402 383 l 402 337 l 602 147 "},"D":{"x_min":77.78125,"x_max":751.390625,"ha":833,"o":"m 658 880 b 751 522 719 783 751 655 b 658 162 751 387 719 259 b 550 45 627 113 591 75 b 404 0 504 15 455 0 l 329 0 l 244 0 l 77 0 l 77 58 l 129 84 l 129 956 l 77 984 l 77 1041 l 186 1041 l 336 1043 l 404 1043 b 550 997 455 1043 504 1027 b 658 880 591 969 627 929 m 559 225 b 636 522 609 302 636 408 b 559 819 636 634 609 740 b 405 927 516 888 461 926 l 363 927 l 244 927 l 244 115 l 372 115 l 404 115 b 559 225 461 115 516 154 "},"ÿ":{"x_min":77.78125,"x_max":752.78125,"ha":833,"o":"m 644 694 l 586 636 l 586 208 l 456 115 l 426 115 b 243 298 325 115 243 197 l 243 636 l 186 694 l 77 694 l 77 636 l 127 609 l 127 298 b 215 87 127 218 158 143 b 413 0 268 33 338 2 l 502 0 l 586 113 l 586 -138 l 456 -231 l 426 -231 b 243 -48 325 -231 243 -150 l 127 -48 b 215 -259 127 -129 158 -204 b 413 -347 268 -313 338 -344 l 502 -347 l 515 -330 l 701 -138 l 701 609 l 752 636 l 752 694 l 644 694 m 491 1026 l 491 868 l 658 868 l 658 968 l 598 1026 l 491 1026 m 175 1026 l 175 868 l 341 868 l 341 968 l 281 1026 l 175 1026 "},"í":{"x_min":77.78125,"x_max":754.171875,"ha":833,"o":"m 695 116 l 587 88 l 533 115 l 533 634 l 475 694 l 147 694 l 147 622 l 416 595 l 416 115 l 354 83 l 136 116 l 77 56 l 77 1 l 136 1 l 302 1 l 416 1 l 475 29 l 533 1 l 647 1 l 695 1 l 754 1 l 754 56 l 695 116 m 287 920 l 320 873 l 541 1027 l 555 1108 l 522 1155 l 476 1122 l 287 920 "},"w":{"x_min":79.171875,"x_max":754.171875,"ha":833,"o":"m 586 637 l 586 222 b 583 220 586 220 583 220 b 559 204 575 215 566 209 b 522 161 545 191 533 176 b 488 201 512 176 501 188 l 479 209 b 473 212 479 209 473 212 l 473 511 l 415 569 l 358 569 l 358 218 b 358 212 358 216 358 213 b 309 161 338 198 323 180 b 276 201 300 176 288 188 b 256 216 270 206 263 212 b 245 222 255 216 245 222 l 245 637 l 187 694 l 79 694 l 79 637 l 129 609 l 129 183 b 252 0 223 162 252 94 b 254 0 252 0 252 0 l 368 0 l 369 25 b 384 104 370 51 375 77 b 401 137 388 115 393 127 b 416 155 404 144 411 152 b 425 148 418 155 423 150 b 437 130 429 143 433 137 b 454 84 444 116 450 101 b 462 36 458 69 462 52 l 463 15 l 465 5 b 465 0 465 4 463 0 b 473 0 465 -1 472 0 l 580 0 b 702 183 580 94 608 148 l 702 611 l 754 637 l 754 694 l 644 694 l 586 637 "},"$":{"x_min":77.78125,"x_max":752.78125,"ha":833,"o":"m 638 926 l 695 811 l 752 811 l 752 926 l 695 1041 l 320 1041 b 77 798 187 1041 77 933 l 77 758 l 644 219 b 509 102 627 168 566 100 l 191 116 l 134 230 l 77 230 l 77 115 l 134 0 l 509 0 b 752 243 643 0 752 109 l 752 283 l 186 822 b 320 940 201 875 263 943 l 638 926 m 473 1111 l 356 1111 l 356 -83 l 473 -83 l 473 1111 "},"\\":{"x_min":77.78125,"x_max":755.5625,"ha":833,"o":"m 77 1015 l 654 -26 l 755 29 l 179 1072 l 77 1015 "},"Ì":{"x_min":77.78125,"x_max":752.78125,"ha":833,"o":"m 752 1041 l 77 1041 l 77 984 l 186 926 l 366 926 l 366 115 l 186 115 l 77 58 l 77 0 l 752 0 l 752 56 l 695 115 l 481 115 l 481 926 l 695 926 l 752 986 l 752 1041 m 545 1129 l 512 1081 l 291 1236 l 277 1316 l 311 1363 l 356 1330 l 545 1129 "},"’":{"x_min":347.21875,"x_max":486.109375,"ha":833,"o":"m 347 1041 l 347 697 l 413 697 l 486 766 l 486 1041 l 347 1041 "},"-":{"x_min":211.109375,"x_max":622.21875,"ha":833,"o":"m 211 359 l 211 301 l 565 301 l 622 359 l 622 416 l 565 416 l 211 359 "},"Q":{"x_min":77.78125,"x_max":754.171875,"ha":833,"o":"m 683 906 b 754 619 729 829 754 726 l 754 423 b 683 136 754 315 729 213 l 669 113 l 712 81 l 754 40 l 712 0 l 631 0 l 594 36 b 483 0 559 12 522 0 l 348 0 b 231 40 308 0 268 13 b 148 136 200 62 172 95 b 77 423 102 213 77 315 l 77 619 b 148 906 77 726 102 829 b 231 1002 172 947 200 979 b 348 1043 268 1029 308 1043 l 483 1043 b 600 1002 523 1043 563 1029 b 683 906 631 979 659 947 m 638 619 b 583 848 638 705 618 788 b 483 926 554 898 518 926 l 348 926 b 248 848 313 926 277 898 b 193 619 213 788 193 705 l 193 423 b 248 194 193 337 213 254 b 348 115 277 144 313 115 l 483 115 b 509 120 491 115 501 118 l 351 279 l 393 320 l 576 183 l 583 194 b 638 423 618 254 638 337 l 638 619 "},"M":{"x_min":77.78125,"x_max":752.78125,"ha":833,"o":"m 752 520 b 713 863 752 650 738 772 b 666 979 701 912 684 951 b 569 1041 633 1030 594 1041 l 494 1041 l 465 941 b 409 1011 450 970 430 993 b 325 1041 384 1030 355 1041 l 251 1041 l 236 993 l 186 1041 l 77 1041 l 77 984 l 129 956 l 129 84 l 77 58 l 77 0 l 186 0 l 244 58 l 244 837 l 318 926 l 325 926 b 393 743 344 926 393 862 l 350 465 l 466 465 l 509 743 b 498 848 509 780 505 815 l 562 926 b 609 805 570 916 591 883 b 637 520 627 726 637 626 b 609 237 637 416 627 315 b 568 125 594 175 579 141 l 568 0 b 666 63 615 0 648 34 b 713 179 684 91 701 130 b 752 520 738 270 752 393 "},"C":{"x_min":77.78125,"x_max":751.390625,"ha":833,"o":"m 491 115 l 425 115 b 269 225 368 115 313 154 b 193 522 220 302 193 408 b 269 819 193 634 220 740 b 425 927 313 888 368 927 l 491 927 l 751 729 l 751 855 l 534 1043 l 425 1043 b 280 997 375 1043 325 1027 b 170 880 238 969 202 929 b 77 522 111 783 77 656 b 170 162 77 387 111 259 b 280 45 202 113 238 75 b 425 0 325 15 375 0 l 534 0 l 751 188 l 751 313 l 491 115 "},"!":{"x_min":333.328125,"x_max":501.390625,"ha":833,"o":"m 393 1043 l 333 984 l 333 301 l 440 301 l 500 984 l 500 1043 l 393 1043 m 334 158 l 334 0 l 501 0 l 501 100 l 441 158 l 334 158 "},"È":{"x_min":77.78125,"x_max":752.78125,"ha":833,"o":"m 752 1041 l 77 1041 l 77 984 l 129 956 l 129 84 l 77 58 l 77 0 l 752 0 l 752 56 l 695 115 l 244 101 l 244 525 l 556 525 l 615 583 l 615 640 l 244 640 l 244 940 l 695 926 l 752 986 l 752 1041 m 545 1129 l 512 1081 l 291 1236 l 277 1316 l 311 1363 l 356 1330 l 545 1129 "},"{":{"x_min":187.5,"x_max":680.5625,"ha":833,"o":"m 244 590 l 379 590 l 379 1040 l 384 1041 l 379 1041 l 437 1100 l 623 1100 l 680 1041 l 680 984 l 494 984 l 494 590 l 437 531 l 494 473 l 494 58 l 680 58 l 680 1 l 623 -58 l 437 -58 l 379 1 l 379 475 l 244 475 l 187 530 l 244 590 "},"X":{"x_min":77.78125,"x_max":751.390625,"ha":833,"o":"m 651 1041 l 415 636 l 177 1041 l 77 983 l 347 520 l 77 58 l 177 0 l 415 405 l 651 0 l 751 58 l 481 520 l 751 983 l 651 1041 "},"ô":{"x_min":77.78125,"x_max":754.171875,"ha":833,"o":"m 483 694 b 600 654 523 694 563 680 b 683 558 631 630 659 598 b 754 354 729 480 754 433 l 754 340 b 683 136 754 259 729 213 b 600 40 659 95 631 62 b 483 0 563 13 523 0 l 348 0 b 231 40 308 0 268 13 b 148 136 200 62 172 95 b 77 340 102 213 77 259 l 77 354 b 148 558 77 433 102 480 b 231 654 172 598 200 630 b 348 694 268 680 308 694 l 483 694 m 348 577 b 248 500 313 577 277 550 b 193 354 213 440 193 412 l 193 340 b 248 194 193 281 213 254 b 348 115 277 144 313 115 l 483 115 b 583 194 518 115 554 144 b 638 340 618 254 638 281 l 638 354 b 583 500 638 412 618 440 b 483 577 554 550 518 577 l 348 577 m 415 1108 l 381 1094 l 395 1013 l 616 859 l 650 906 l 461 1108 l 415 1108 m 180 906 l 213 859 l 434 1013 l 448 1094 l 415 1108 l 369 1108 l 180 906 "},"#":{"x_min":77.78125,"x_max":754.171875,"ha":833,"o":"m 350 34 l 643 1006 l 754 973 l 461 1 l 350 34 m 77 276 l 77 391 l 693 391 l 693 276 l 77 276 m 77 34 l 370 1006 l 481 973 l 188 1 l 77 34 m 138 601 l 138 716 l 752 716 l 752 601 l 138 601 "},"Ê":{"x_min":77.78125,"x_max":752.78125,"ha":833,"o":"m 752 1041 l 77 1041 l 77 984 l 129 956 l 129 84 l 77 58 l 77 0 l 752 0 l 752 56 l 695 115 l 244 101 l 244 525 l 556 525 l 615 583 l 615 640 l 244 640 l 244 940 l 695 926 l 752 986 l 752 1041 m 180 1143 l 213 1095 l 434 1250 l 448 1330 l 415 1344 l 369 1344 l 180 1143 m 415 1344 l 381 1330 l 395 1250 l 616 1095 l 650 1143 l 461 1344 l 415 1344 "},")":{"x_min":197.21875,"x_max":580.5625,"ha":833,"o":"m 197 -56 b 356 -5 252 -56 306 -38 b 476 123 401 25 443 68 b 580 522 544 230 580 372 b 476 922 580 672 544 813 b 356 1051 443 976 401 1019 b 197 1101 306 1084 252 1101 l 197 986 b 377 861 263 986 327 941 b 441 711 405 818 426 766 b 465 522 456 651 465 587 b 441 334 465 456 456 394 b 377 184 426 277 405 227 b 197 59 327 104 263 59 l 197 -56 "},"â":{"x_min":77.78125,"x_max":754.171875,"ha":833,"o":"m 754 1 l 645 1 l 586 58 l 523 1 l 427 1 b 191 59 340 1 255 22 b 111 130 158 79 130 102 b 77 230 88 161 77 195 b 111 331 77 266 88 301 b 191 402 130 359 158 383 b 427 461 255 440 340 461 l 495 461 l 586 379 l 586 466 b 537 543 586 481 580 515 b 391 579 500 569 447 579 b 245 538 336 579 283 565 b 222 520 236 533 229 526 l 144 605 b 180 636 155 616 166 626 b 391 695 237 673 312 695 b 602 640 470 695 545 677 b 673 568 633 619 656 595 b 702 466 693 537 702 501 l 702 86 l 754 58 l 754 1 m 586 302 l 468 345 l 427 345 b 251 302 361 345 297 330 b 193 230 213 281 193 255 b 251 159 193 206 213 180 b 427 116 297 131 361 116 l 468 116 l 586 158 l 586 302 m 415 1108 l 381 1094 l 395 1013 l 616 859 l 650 906 l 461 1108 l 415 1108 m 180 906 l 213 859 l 434 1013 l 448 1094 l 415 1108 l 369 1108 l 180 906 "},"}":{"x_min":187.5,"x_max":681.953125,"ha":833,"o":"m 625 590 l 490 590 l 490 1040 l 483 1041 l 490 1041 l 431 1100 l 245 1100 l 187 1041 l 187 984 l 373 984 l 373 590 l 430 531 l 373 473 l 373 58 l 187 58 l 187 1 l 245 -58 l 431 -58 l 490 1 l 490 475 l 625 475 l 681 530 l 625 590 "},"Ä":{"x_min":77.78125,"x_max":752.78125,"ha":833,"o":"m 245 695 b 415 922 245 802 318 895 b 584 695 513 895 584 802 l 584 58 l 644 0 l 752 0 l 752 58 l 701 86 l 701 695 b 598 943 701 788 665 876 b 415 1041 563 977 512 1025 b 231 943 318 1025 266 977 b 129 695 165 876 129 788 l 129 86 l 77 58 l 77 0 l 186 0 l 245 58 l 245 695 m 223 463 l 606 463 l 606 579 l 223 579 l 223 463 m 175 1276 l 175 1118 l 341 1118 l 341 1218 l 281 1276 l 175 1276 m 491 1276 l 491 1118 l 658 1118 l 658 1218 l 598 1276 l 491 1276 "},"a":{"x_min":77.78125,"x_max":754.171875,"ha":833,"o":"m 754 1 l 645 1 l 586 58 l 523 1 l 427 1 b 191 59 340 1 255 22 b 111 130 158 79 130 102 b 77 230 88 161 77 195 b 111 331 77 266 88 301 b 191 402 130 359 158 383 b 427 461 255 440 340 461 l 495 461 l 586 379 l 586 466 b 537 543 586 481 580 515 b 391 579 500 569 447 579 b 245 538 336 579 283 565 b 222 520 236 533 229 526 l 144 605 b 180 636 155 616 166 626 b 391 695 237 673 312 695 b 602 640 470 695 545 677 b 673 568 633 619 656 595 b 702 466 693 537 702 501 l 702 86 l 754 58 l 754 1 m 586 302 l 468 345 l 427 345 b 251 302 361 345 297 330 b 193 230 213 281 193 255 b 251 159 193 206 213 180 b 427 116 297 131 361 116 l 468 116 l 586 158 l 586 302 "},"—":{"x_min":100,"x_max":733.328125,"ha":833,"o":"m 100 359 l 100 301 l 676 301 l 733 359 l 733 416 l 676 416 l 100 359 "},"=":{"x_min":86.109375,"x_max":747.21875,"ha":833,"o":"m 86 581 l 86 523 l 690 523 l 747 581 l 747 638 l 690 638 l 86 581 m 86 359 l 86 301 l 690 301 l 747 359 l 747 416 l 690 416 l 86 359 "},"N":{"x_min":77.78125,"x_max":752.78125,"ha":833,"o":"m 752 1041 l 644 1041 l 586 984 l 586 291 l 215 1041 l 77 1041 l 77 984 l 129 956 l 129 84 l 77 58 l 77 0 l 186 0 l 244 58 l 244 708 l 594 0 l 701 0 l 701 956 l 752 984 l 752 1041 "},"ú":{"x_min":80.5625,"x_max":755.5625,"ha":833,"o":"m 755 637 l 755 695 l 647 695 l 588 637 l 588 209 l 459 116 l 429 116 b 245 298 327 116 245 198 l 245 637 l 188 694 l 80 695 l 80 637 l 130 611 l 130 298 b 218 87 130 219 161 144 b 416 0 270 34 341 4 l 505 0 l 588 115 l 588 58 l 647 0 l 755 0 l 755 58 l 704 86 l 704 609 l 755 637 m 287 920 l 320 873 l 541 1027 l 555 1108 l 522 1155 l 476 1122 l 287 920 "},"⁄":{"x_min":77.78125,"x_max":755.5625,"ha":833,"o":"m 77 29 l 654 1072 l 755 1015 l 179 -26 l 77 29 "},"2":{"x_min":77.78125,"x_max":752.78125,"ha":833,"o":"m 205 115 b 265 281 216 179 236 236 b 404 384 287 320 336 384 b 648 479 497 384 583 418 b 751 713 715 541 751 625 b 648 948 751 802 715 886 b 406 1043 583 1008 497 1043 l 297 1043 l 77 852 l 154 765 l 340 927 l 404 927 b 636 713 531 927 636 831 b 404 500 636 595 531 500 b 266 454 356 500 309 484 b 165 343 229 427 194 390 b 79 0 109 250 79 129 l 752 0 l 752 56 l 695 115 l 205 115 "},"ü":{"x_min":80.5625,"x_max":755.5625,"ha":833,"o":"m 755 637 l 755 695 l 647 695 l 588 637 l 588 209 l 459 116 l 429 116 b 245 298 327 116 245 198 l 245 637 l 188 694 l 80 695 l 80 637 l 130 611 l 130 298 b 218 87 130 219 161 144 b 416 0 270 34 341 4 l 505 0 l 588 115 l 588 58 l 647 0 l 755 0 l 755 58 l 704 86 l 704 609 l 755 637 m 491 1026 l 491 868 l 658 868 l 658 968 l 598 1026 l 491 1026 m 175 1026 l 175 868 l 341 868 l 341 968 l 281 1026 l 175 1026 "},"¯":{"x_min":100,"x_max":733.328125,"ha":833,"o":"m 100 1041 l 100 983 l 676 983 l 733 1041 l 733 1098 l 676 1098 l 100 1041 "},"Z":{"x_min":77.78125,"x_max":754.171875,"ha":833,"o":"m 754 930 l 695 1041 l 134 1041 l 77 926 l 77 811 l 134 811 l 194 930 l 744 930 l 716 986 l 77 172 l 77 111 l 134 0 l 695 0 l 752 115 l 752 230 l 695 230 l 636 112 l 86 111 l 115 56 l 754 870 l 754 930 "},"u":{"x_min":80.5625,"x_max":755.5625,"ha":833,"o":"m 755 637 l 755 695 l 647 695 l 588 637 l 588 209 l 459 116 l 429 116 b 245 298 327 116 245 198 l 245 637 l 188 694 l 80 695 l 80 637 l 130 611 l 130 298 b 218 87 130 219 161 144 b 416 0 270 34 341 4 l 505 0 l 588 115 l 588 58 l 647 0 l 755 0 l 755 58 l 704 86 l 704 609 l 755 637 "},"Ó":{"x_min":77.78125,"x_max":754.171875,"ha":833,"o":"m 683 906 b 600 1002 659 947 631 979 b 483 1043 563 1029 523 1043 l 348 1043 b 231 1002 308 1043 268 1029 b 148 906 200 979 172 947 b 77 619 102 829 77 726 l 77 423 b 148 136 77 315 102 213 b 231 40 172 95 200 62 b 348 0 268 13 308 0 l 483 0 b 600 40 523 0 563 13 b 683 136 631 62 659 95 b 754 423 729 213 754 315 l 754 619 b 683 906 754 726 729 829 m 638 423 b 583 194 638 337 618 254 b 483 115 554 144 518 115 l 348 115 b 248 194 313 115 277 144 b 193 423 213 254 194 337 l 193 619 b 248 848 193 705 213 788 b 348 926 277 898 313 926 l 483 926 b 583 848 518 926 554 898 b 638 619 618 788 638 705 l 638 423 m 287 1129 l 320 1081 l 541 1236 l 555 1316 l 522 1363 l 476 1330 l 287 1129 "},"k":{"x_min":77.78125,"x_max":758.328125,"ha":833,"o":"m 758 97 l 240 444 l 241 315 l 758 604 l 701 705 l 244 450 l 244 984 l 186 1043 l 77 1043 l 77 984 l 129 956 l 129 86 l 77 58 l 77 0 l 186 0 l 244 58 l 244 308 l 688 0 l 758 97 "},"Ù":{"x_min":77.78125,"x_max":752.78125,"ha":833,"o":"m 752 1041 l 643 1041 l 586 984 l 587 425 b 531 194 587 337 566 254 b 431 116 502 145 466 116 l 400 116 b 300 194 365 116 329 145 b 244 425 265 254 244 337 l 244 984 l 187 1041 l 77 1041 l 77 984 l 129 958 l 129 425 b 200 136 129 316 154 213 b 283 40 223 95 251 63 b 400 1 319 15 359 1 l 431 1 b 548 40 472 1 512 15 b 631 136 580 63 608 95 b 702 425 677 213 702 316 l 701 958 l 752 984 l 752 1041 m 545 1129 l 512 1081 l 291 1236 l 277 1316 l 311 1363 l 356 1330 l 545 1129 "},"€":{"x_min":80.5625,"x_max":752.78125,"ha":833,"o":"m 562 115 l 495 115 b 340 225 438 115 384 154 b 263 522 291 302 263 408 b 340 819 263 634 291 740 b 495 927 384 888 438 927 l 562 927 l 752 781 l 752 913 l 605 1043 l 495 1043 b 351 997 445 1043 395 1027 b 241 880 309 969 273 929 b 148 522 181 783 148 656 b 241 162 148 387 181 259 b 351 45 273 113 309 75 b 495 0 395 15 445 0 l 605 0 l 752 131 l 752 261 l 562 115 m 80 418 l 80 359 l 570 359 l 627 418 l 627 475 l 570 475 l 80 418 m 80 626 l 80 568 l 668 568 l 725 626 l 725 683 l 668 683 l 80 626 "},"¢":{"x_min":80.5625,"x_max":754.171875,"ha":833,"o":"m 618 579 l 754 480 l 754 570 l 663 695 l 427 695 b 181 593 336 695 248 659 b 80 347 116 527 80 440 b 181 101 80 255 116 168 b 427 0 248 36 336 0 l 663 0 l 754 126 l 754 212 l 618 115 l 427 115 b 195 347 300 115 195 219 b 427 579 195 475 300 579 l 618 579 m 526 811 l 409 811 l 409 -111 l 526 -111 l 526 811 "},"é":{"x_min":77.78125,"x_max":751.390625,"ha":833,"o":"m 751 569 l 751 288 l 201 288 b 425 115 226 188 318 115 l 615 115 l 751 212 l 751 126 l 661 0 l 425 0 b 179 101 333 0 245 36 b 77 347 113 166 77 254 b 179 593 77 440 113 527 b 425 694 245 658 333 694 l 661 694 l 751 569 m 425 579 b 201 405 318 579 226 505 l 651 405 l 651 552 l 615 579 l 425 579 m 287 920 l 320 873 l 541 1027 l 555 1108 l 522 1155 l 476 1122 l 287 920 "},"s":{"x_min":80.5625,"x_max":755.5625,"ha":833,"o":"m 641 579 l 698 463 l 755 463 l 755 579 l 698 694 l 323 694 b 80 451 190 694 80 586 l 80 411 l 633 205 b 512 102 616 154 569 100 l 194 116 l 137 230 l 80 230 l 80 115 l 137 0 l 512 0 b 755 243 645 0 755 109 l 755 283 l 202 488 b 323 593 218 541 266 595 l 641 579 "},"B":{"x_min":77.78125,"x_max":751.390625,"ha":833,"o":"m 723 447 b 751 320 743 406 751 365 b 723 194 751 276 743 234 b 648 91 705 155 680 122 b 404 0 583 33 495 0 l 329 0 l 244 109 l 244 0 l 77 0 l 77 58 l 129 86 l 129 956 l 77 984 l 77 1043 l 336 1043 l 404 1043 l 416 1043 b 630 973 497 1041 572 1016 b 704 891 661 950 686 922 b 733 784 723 856 733 822 b 704 677 733 747 723 711 b 630 595 686 645 661 618 l 608 580 b 648 548 622 570 636 561 b 723 447 680 519 705 486 m 404 116 b 636 320 531 116 636 208 b 412 525 636 430 536 520 l 404 525 l 244 525 l 244 195 l 372 116 l 404 116 m 244 927 l 244 640 l 404 640 l 412 640 b 561 687 469 641 522 658 b 616 784 597 715 616 748 b 561 880 616 819 597 852 b 404 927 519 911 463 927 l 363 927 l 244 927 "},"…":{"x_min":125,"x_max":708.328125,"ha":833,"o":"m 569 158 l 569 0 l 708 0 l 708 100 l 648 158 l 569 158 m 125 158 l 125 0 l 263 0 l 263 100 l 204 158 l 125 158 m 125 158 l 125 0 l 263 0 l 263 100 l 204 158 l 125 158 m 347 158 l 347 0 l 486 0 l 486 100 l 426 158 l 347 158 m 347 158 l 347 0 l 486 0 l 486 100 l 426 158 l 347 158 "},"?":{"x_min":77.78125,"x_max":751.390625,"ha":833,"o":"m 648 947 b 406 1041 583 1008 497 1041 l 297 1041 l 77 852 l 77 698 l 340 926 l 404 926 b 636 712 531 926 636 830 b 468 506 636 615 565 531 l 401 506 l 333 440 l 333 301 l 458 301 l 458 387 b 648 477 529 397 595 429 b 751 712 715 540 751 623 b 648 947 751 801 715 884 m 333 158 l 333 0 l 500 0 l 500 100 l 440 158 l 333 158 "},"H":{"x_min":77.78125,"x_max":752.78125,"ha":833,"o":"m 752 1041 l 644 1041 l 586 984 l 586 640 l 244 640 l 244 984 l 186 1041 l 77 1041 l 77 984 l 129 956 l 129 84 l 77 58 l 77 0 l 186 0 l 244 58 l 244 525 l 625 525 l 586 583 l 586 58 l 644 0 l 752 0 l 752 58 l 701 84 l 701 956 l 752 984 l 752 1041 "},"î":{"x_min":77.78125,"x_max":754.171875,"ha":833,"o":"m 695 116 l 587 88 l 533 115 l 533 634 l 475 694 l 147 694 l 147 622 l 416 595 l 416 115 l 354 83 l 136 116 l 77 56 l 77 1 l 136 1 l 302 1 l 416 1 l 475 29 l 533 1 l 647 1 l 695 1 l 754 1 l 754 56 l 695 116 m 415 1108 l 381 1094 l 395 1013 l 616 859 l 650 906 l 461 1108 l 415 1108 m 180 906 l 213 859 l 434 1013 l 448 1094 l 415 1108 l 369 1108 l 180 906 "},"c":{"x_min":80.5625,"x_max":754.171875,"ha":833,"o":"m 618 579 l 754 480 l 754 570 l 663 695 l 427 695 b 181 593 336 695 248 659 b 80 347 116 527 80 440 b 181 101 80 255 116 168 b 427 0 248 36 336 0 l 663 0 l 754 126 l 754 212 l 618 115 l 427 115 b 195 347 300 115 195 219 b 427 579 195 475 300 579 l 618 579 "},"¶":{"x_min":77.78125,"x_max":751.390625,"ha":833,"o":"m 348 1041 b 231 1001 308 1041 268 1027 b 148 905 200 977 172 945 b 77 701 102 827 77 780 l 77 687 b 148 483 77 606 102 561 b 231 387 172 443 200 409 b 348 347 268 361 308 347 l 483 347 l 436 462 b 436 925 418 462 412 894 l 455 950 l 483 925 b 583 847 518 925 554 897 b 638 687 618 787 638 745 l 740 687 l 740 701 b 683 905 740 780 729 827 b 600 1001 659 945 631 977 b 483 1041 563 1027 523 1041 l 348 1041 m 373 1041 l 373 -158 l 490 -158 l 490 1041 l 373 1041 m 634 1041 l 634 -158 l 751 -158 l 751 1041 l 634 1041 "},"•":{"x_min":277.78125,"x_max":555.5625,"ha":833,"o":"m 277 576 l 277 306 l 555 306 l 555 462 l 440 576 l 277 576 "},"¥":{"x_min":79.171875,"x_max":754.171875,"ha":833,"o":"m 645 1041 l 587 984 l 587 659 b 416 575 522 658 458 625 b 245 659 375 625 312 658 l 245 984 l 187 1041 l 79 1041 l 79 984 l 130 956 l 130 694 l 202 597 l 218 597 b 245 593 227 597 236 595 b 304 561 266 587 287 576 b 358 441 340 530 358 487 l 475 441 b 519 551 476 483 490 520 b 630 597 548 581 588 595 l 702 694 l 702 956 l 754 984 l 754 1041 l 645 1041 m 648 263 l 127 206 l 127 148 l 648 148 l 705 206 l 705 263 l 648 263 m 358 480 l 358 0 l 475 0 l 475 480 l 358 480 m 648 486 l 127 429 l 127 370 l 648 370 l 705 429 l 705 486 l 648 486 "},"(":{"x_min":252.78125,"x_max":636.109375,"ha":833,"o":"m 636 -56 b 477 -5 580 -56 526 -38 b 356 123 431 25 391 68 b 252 522 290 230 252 372 b 356 922 252 672 290 813 b 477 1051 391 976 431 1019 b 636 1101 526 1084 580 1101 l 636 986 b 455 861 569 986 505 941 b 393 711 429 818 406 766 b 369 522 376 651 369 587 b 393 334 369 456 376 394 b 455 184 406 277 429 227 b 636 59 505 104 569 59 l 636 -56 "},"U":{"x_min":80.5625,"x_max":755.5625,"ha":833,"o":"m 755 1041 l 645 1041 l 588 984 l 590 425 b 534 194 590 337 569 254 b 434 116 505 145 469 116 l 402 116 b 302 194 368 116 331 145 b 247 425 268 254 247 337 l 247 984 l 190 1041 l 80 1041 l 80 984 l 131 958 l 131 425 b 202 136 131 316 156 213 b 286 40 226 95 254 63 b 402 1 322 15 362 1 l 434 1 b 551 40 475 1 515 15 b 634 136 583 63 611 95 b 705 425 680 213 705 316 l 704 958 l 755 984 l 755 1041 "},"Ñ":{"x_min":77.78125,"x_max":752.78125,"ha":833,"o":"m 752 1041 l 644 1041 l 586 984 l 586 291 l 215 1041 l 77 1041 l 77 984 l 129 956 l 129 84 l 77 58 l 77 0 l 186 0 l 244 58 l 244 708 l 594 0 l 701 0 l 701 956 l 752 984 l 752 1041 m 384 1288 l 351 1336 l 187 1236 l 187 1141 l 252 1141 l 384 1288 m 498 1141 l 531 1155 l 518 1236 l 351 1336 l 318 1288 l 452 1141 l 498 1141 m 676 1288 l 643 1336 l 479 1236 l 465 1155 l 498 1141 l 544 1141 l 676 1288 "},"F":{"x_min":77.78125,"x_max":752.78125,"ha":833,"o":"m 77 1041 l 77 984 l 129 956 l 129 84 l 77 58 l 77 0 l 244 0 l 244 525 l 675 525 l 733 583 l 733 640 l 244 640 l 244 940 l 695 926 l 752 986 l 752 1041 l 77 1041 "},":":{"x_min":333.328125,"x_max":500,"ha":833,"o":"m 333 694 l 333 536 l 500 536 l 500 636 l 440 694 l 333 694 m 333 158 l 333 0 l 500 0 l 500 100 l 440 158 l 333 158 "},"Û":{"x_min":77.78125,"x_max":752.78125,"ha":833,"o":"m 752 1041 l 643 1041 l 586 984 l 587 425 b 531 194 587 337 566 254 b 431 116 502 145 466 116 l 400 116 b 300 194 365 116 329 145 b 244 425 265 254 244 337 l 244 984 l 187 1041 l 77 1041 l 77 984 l 129 958 l 129 425 b 200 136 129 316 154 213 b 283 40 223 95 251 63 b 400 1 319 15 359 1 l 431 1 b 548 40 472 1 512 15 b 631 136 580 63 608 95 b 702 425 677 213 702 316 l 701 958 l 752 984 l 752 1041 m 180 1143 l 213 1095 l 434 1250 l 448 1330 l 415 1344 l 369 1344 l 180 1143 m 415 1344 l 381 1330 l 395 1250 l 616 1095 l 650 1143 l 461 1344 l 415 1344 "},"*":{"x_min":154.171875,"x_max":680.5625,"ha":833,"o":"m 154 686 l 623 956 l 680 856 l 212 586 l 154 686 m 359 500 l 359 1041 l 475 1041 l 475 500 l 359 500 m 154 856 l 212 956 l 680 686 l 623 586 l 154 856 "},"†":{"x_min":127.78125,"x_max":705.5625,"ha":833,"o":"m 356 1041 l 356 -83 l 473 -83 l 473 1041 l 356 1041 m 648 694 l 127 637 l 127 579 l 648 579 l 705 637 l 705 694 l 648 694 "},"°":{"x_min":248.609375,"x_max":581.9375,"ha":833,"o":"m 415 722 b 581 888 506 722 581 797 b 415 1055 581 980 506 1055 b 248 888 323 1055 248 980 b 415 722 248 797 323 722 m 415 819 b 345 888 377 819 345 850 b 415 958 345 927 377 958 b 484 888 454 958 484 927 b 415 819 484 850 454 819 "},"V":{"x_min":77.78125,"x_max":752.78125,"ha":833,"o":"m 586 984 l 586 231 b 415 133 520 218 456 183 b 244 231 373 183 311 218 l 244 984 l 186 1041 l 77 1041 l 77 984 l 129 956 l 129 169 b 356 0 223 169 356 111 l 473 0 b 701 169 473 111 606 169 l 701 956 l 752 984 l 752 1041 l 644 1041 l 586 984 "},"0":{"x_min":77.78125,"x_max":751.390625,"ha":833,"o":"m 661 880 b 556 997 631 930 595 969 b 415 1044 512 1027 463 1044 b 272 997 365 1044 316 1027 b 168 880 233 969 197 930 b 77 522 109 783 77 656 b 168 165 77 388 109 261 b 272 47 197 115 233 76 b 415 1 316 16 365 1 b 556 47 463 1 512 16 b 661 165 595 76 631 115 b 751 522 719 261 751 388 b 661 880 751 656 719 783 m 562 225 b 415 116 505 130 445 116 b 266 225 383 116 323 130 b 193 522 219 302 193 409 b 266 820 193 636 219 741 b 415 927 323 913 383 927 b 562 820 445 927 505 913 b 636 522 609 741 636 636 b 562 225 636 409 609 302 "},"”":{"x_min":222.21875,"x_max":612.5,"ha":833,"o":"m 472 1072 l 473 775 l 552 775 l 612 833 l 611 1072 l 472 1072 m 222 1072 l 223 775 l 302 775 l 362 833 l 361 1072 l 222 1072 "},"@":{"x_min":77.78125,"x_max":754.171875,"ha":833,"o":"m 194 411 b 241 520 194 445 212 488 b 362 579 263 547 304 579 b 487 543 415 579 458 566 b 523 466 511 523 523 497 l 523 406 l 490 461 l 430 461 b 283 390 373 461 322 436 b 226 230 245 347 226 290 b 283 70 226 170 245 113 b 430 0 322 25 373 0 l 490 0 l 525 56 l 581 0 l 638 0 l 638 466 b 561 631 638 530 611 590 b 362 695 511 673 443 695 b 154 597 283 695 209 661 b 77 411 106 543 77 473 l 77 41 b 105 -59 77 8 87 -26 b 176 -145 122 -90 145 -120 b 425 -229 241 -200 329 -229 b 659 -169 520 -229 602 -208 b 754 0 719 -129 754 -66 l 638 0 b 425 -113 638 -68 554 -113 b 250 -56 356 -113 294 -94 b 194 40 208 -22 194 16 l 194 411 m 430 115 b 370 145 408 115 387 126 b 341 230 352 168 341 197 b 370 315 341 262 352 293 b 430 344 387 334 408 344 l 448 344 l 523 304 l 523 154 l 450 115 l 430 115 "},"ö":{"x_min":77.78125,"x_max":754.171875,"ha":833,"o":"m 483 694 b 600 654 523 694 563 680 b 683 558 631 630 659 598 b 754 354 729 480 754 433 l 754 340 b 683 136 754 259 729 213 b 600 40 659 95 631 62 b 483 0 563 13 523 0 l 348 0 b 231 40 308 0 268 13 b 148 136 200 62 172 95 b 77 340 102 213 77 259 l 77 354 b 148 558 77 433 102 480 b 231 654 172 598 200 630 b 348 694 268 680 308 694 l 483 694 m 348 577 b 248 500 313 577 277 550 b 193 354 213 440 193 412 l 193 340 b 248 194 193 281 213 254 b 348 115 277 144 313 115 l 483 115 b 583 194 518 115 554 144 b 638 340 618 254 638 281 l 638 354 b 583 500 638 412 618 440 b 483 577 554 550 518 577 l 348 577 m 491 1026 l 491 868 l 658 868 l 658 968 l 598 1026 l 491 1026 m 175 1026 l 175 868 l 341 868 l 341 968 l 281 1026 l 175 1026 "},"i":{"x_min":77.78125,"x_max":754.171875,"ha":833,"o":"m 695 116 l 587 88 l 533 115 l 533 634 l 475 694 l 147 694 l 147 622 l 416 595 l 416 115 l 354 83 l 136 116 l 77 56 l 77 1 l 416 1 l 475 29 l 533 1 l 754 1 l 754 56 l 695 116 m 533 927 l 533 984 l 473 1043 l 365 1043 l 365 984 l 473 927 l 533 927 "},"Õ":{"x_min":77.78125,"x_max":754.171875,"ha":833,"o":"m 683 906 b 600 1002 659 947 631 979 b 483 1043 563 1029 523 1043 l 348 1043 b 231 1002 308 1043 268 1029 b 148 906 200 979 172 947 b 77 619 102 829 77 726 l 77 423 b 148 136 77 315 102 213 b 231 40 172 95 200 62 b 348 0 268 13 308 0 l 483 0 b 600 40 523 0 563 13 b 683 136 631 62 659 95 b 754 423 729 213 754 315 l 754 619 b 683 906 754 726 729 829 m 638 423 b 583 194 638 337 618 254 b 483 115 554 144 518 115 l 348 115 b 248 194 313 115 277 144 b 193 423 213 254 194 337 l 193 619 b 248 848 193 705 213 788 b 348 926 277 898 313 926 l 483 926 b 583 848 518 926 554 898 b 638 619 618 788 638 705 l 638 423 m 384 1275 l 351 1322 l 187 1222 l 187 1127 l 252 1127 l 384 1275 m 498 1127 l 531 1141 l 518 1222 l 351 1322 l 318 1275 l 452 1127 l 498 1127 m 676 1275 l 643 1322 l 479 1222 l 465 1141 l 498 1127 l 544 1127 l 676 1275 "},"]":{"x_min":195.828125,"x_max":580.5625,"ha":833,"o":"m 580 1041 l 522 1100 l 252 1100 l 195 1041 l 195 984 l 465 984 l 465 56 l 195 56 l 195 0 l 252 -58 l 522 -58 l 580 0 l 580 1041 "},"m":{"x_min":77.78125,"x_max":752.78125,"ha":833,"o":"m 711 575 b 569 694 665 679 602 694 l 494 694 l 465 594 b 409 663 450 623 430 645 b 325 694 384 683 355 694 l 251 694 l 236 647 l 186 695 l 77 695 l 77 638 l 129 611 l 129 84 l 77 58 l 77 0 l 186 0 l 244 58 l 244 490 l 318 579 l 325 579 b 393 395 344 579 393 515 l 370 227 l 466 250 l 509 395 b 498 501 509 431 505 468 l 562 579 l 568 579 b 608 522 572 577 590 566 b 637 347 626 475 637 412 b 608 172 637 280 626 218 b 568 115 590 127 572 115 l 568 -1 b 711 118 602 -1 665 13 b 752 347 737 180 752 261 b 711 575 752 431 737 513 "},"8":{"x_min":77.78125,"x_max":751.390625,"ha":833,"o":"m 648 500 b 605 530 634 511 620 520 b 648 558 620 538 634 548 b 722 647 680 584 705 613 b 751 762 741 683 751 722 b 722 876 751 801 741 840 b 648 965 705 909 680 938 b 415 1043 584 1015 502 1043 b 180 965 326 1043 244 1015 b 106 876 150 938 123 909 b 77 762 87 840 77 801 b 106 647 77 722 87 683 b 180 558 123 613 150 584 b 223 530 194 548 208 538 b 180 500 208 520 194 511 b 105 406 148 473 123 441 b 77 290 87 370 77 331 b 105 173 77 250 87 211 b 180 81 123 140 148 108 b 415 1 243 29 326 1 b 648 81 502 1 586 29 b 723 173 680 108 705 140 b 751 290 741 211 751 250 b 723 406 751 331 741 370 b 648 500 705 441 680 473 m 575 170 b 415 116 531 136 475 116 b 254 170 354 116 297 136 b 193 290 215 204 193 245 b 254 409 193 334 215 377 b 415 465 297 445 354 465 b 575 409 475 465 531 445 b 636 290 613 377 636 334 b 575 170 636 245 613 204 m 254 875 b 415 927 295 908 352 927 b 576 875 476 927 533 908 b 636 762 613 843 636 804 b 576 648 636 719 613 680 b 415 595 533 615 476 595 b 254 648 352 595 295 615 b 193 762 215 680 193 719 b 254 875 193 804 215 843 "},"R":{"x_min":77.78125,"x_max":751.390625,"ha":833,"o":"m 594 56 b 534 268 594 133 573 215 b 411 368 501 315 458 368 l 329 368 l 244 368 l 244 0 l 77 0 l 77 58 l 129 84 l 129 956 l 77 984 l 77 1041 l 336 1043 l 416 1043 b 648 948 504 1040 586 1006 b 751 713 715 886 751 802 b 648 479 751 625 715 541 b 409 384 584 418 498 384 l 369 454 b 534 422 425 462 483 452 b 629 336 569 402 601 373 b 709 69 681 263 709 169 l 641 44 l 636 115 l 750 56 l 750 0 l 651 0 l 594 56 m 244 927 l 244 500 l 404 500 b 636 713 531 500 636 595 b 404 927 636 831 531 927 l 363 927 l 244 927 "},"á":{"x_min":77.78125,"x_max":754.171875,"ha":833,"o":"m 754 1 l 645 1 l 586 58 l 523 1 l 427 1 b 191 59 340 1 255 22 b 111 130 158 79 130 102 b 77 230 88 161 77 195 b 111 331 77 266 88 301 b 191 402 130 359 158 383 b 427 461 255 440 340 461 l 495 461 l 586 379 l 586 466 b 537 543 586 481 580 515 b 391 579 500 569 447 579 b 245 538 336 579 283 565 b 222 520 236 533 229 526 l 144 605 b 180 636 155 616 166 626 b 391 695 237 673 312 695 b 602 640 470 695 545 677 b 673 568 633 619 656 595 b 702 466 693 537 702 501 l 702 86 l 754 58 l 754 1 m 586 302 l 468 345 l 427 345 b 251 302 361 345 297 330 b 193 230 213 281 193 255 b 251 159 193 206 213 180 b 427 116 297 131 361 116 l 468 116 l 586 158 l 586 302 m 287 920 l 320 873 l 541 1027 l 555 1108 l 522 1155 l 476 1122 l 287 920 "},"×":{"x_min":77.78125,"x_max":756.953125,"ha":833,"o":"m 673 695 l 418 430 l 161 695 l 77 615 l 336 347 l 77 80 l 161 0 l 418 263 l 673 0 l 756 80 l 498 347 l 756 615 l 673 695 "},"o":{"x_min":77.78125,"x_max":754.171875,"ha":833,"o":"m 483 694 b 600 654 523 694 563 680 b 683 558 631 630 659 598 b 754 354 729 480 754 433 l 754 340 b 683 136 754 259 729 213 b 600 40 659 95 631 62 b 483 0 563 13 523 0 l 348 0 b 231 40 308 0 268 13 b 148 136 200 62 172 95 b 77 340 102 213 77 259 l 77 354 b 148 558 77 433 102 480 b 231 654 172 598 200 630 b 348 694 268 680 308 694 l 483 694 m 348 577 b 248 500 313 577 277 550 b 193 354 213 440 193 412 l 193 340 b 248 194 193 281 213 254 b 348 115 277 144 313 115 l 483 115 b 583 194 518 115 554 144 b 638 340 618 254 638 281 l 638 354 b 583 500 638 412 618 440 b 483 577 554 550 518 577 l 348 577 "},"5":{"x_min":77.78125,"x_max":752.78125,"ha":833,"o":"m 752 1043 l 136 1043 l 77 984 l 77 601 l 137 543 l 404 543 b 636 330 531 543 636 447 b 404 116 636 212 531 116 l 340 116 l 154 277 l 77 190 l 297 0 l 406 0 b 648 95 497 1 583 34 b 751 330 715 158 751 241 b 648 563 751 418 715 501 b 404 659 583 625 497 659 l 193 659 l 193 927 l 695 927 l 752 987 l 752 1043 "},"õ":{"x_min":77.78125,"x_max":754.171875,"ha":833,"o":"m 483 694 b 600 654 523 694 563 680 b 683 558 631 630 659 598 b 754 354 729 480 754 433 l 754 340 b 683 136 754 259 729 213 b 600 40 659 95 631 62 b 483 0 563 13 523 0 l 348 0 b 231 40 308 0 268 13 b 148 136 200 62 172 95 b 77 340 102 213 77 259 l 77 354 b 148 558 77 433 102 480 b 231 654 172 598 200 630 b 348 694 268 680 308 694 l 483 694 m 348 577 b 248 500 313 577 277 550 b 193 354 213 440 193 412 l 193 340 b 248 194 193 281 213 254 b 348 115 277 144 313 115 l 483 115 b 583 194 518 115 554 144 b 638 340 618 254 638 281 l 638 354 b 583 500 638 412 618 440 b 483 577 554 550 518 577 l 348 577 m 498 877 l 531 891 l 518 972 l 351 1072 l 318 1025 l 452 877 l 498 877 m 384 1025 l 351 1072 l 187 972 l 187 877 l 252 877 l 384 1025 m 676 1025 l 643 1072 l 479 972 l 465 891 l 498 877 l 544 877 l 676 1025 "},"7":{"x_min":77.78125,"x_max":752.78125,"ha":833,"o":"m 695 1043 l 77 1043 l 77 987 l 136 927 l 637 927 l 637 880 l 77 66 l 173 1 l 752 844 l 752 984 l 695 1043 "},"K":{"x_min":77.78125,"x_max":752.78125,"ha":833,"o":"m 237 505 l 752 955 l 676 1041 l 244 665 l 244 984 l 186 1041 l 77 1041 l 77 984 l 129 956 l 129 84 l 77 58 l 77 0 l 186 0 l 244 58 l 244 387 l 237 505 m 233 394 l 676 0 l 752 88 l 193 576 l 233 394 "},",":{"x_min":304.171875,"x_max":534.71875,"ha":833,"o":"m 304 -12 l 366 -75 l 534 95 l 533 177 l 472 238 l 431 198 l 304 -12 "},"d":{"x_min":77.78125,"x_max":751.390625,"ha":833,"o":"m 751 0 l 643 0 l 584 58 l 584 116 l 501 0 l 425 0 b 77 347 233 0 77 155 b 425 695 77 538 233 695 l 501 695 l 584 580 l 584 927 l 468 984 l 468 1043 l 584 1043 l 700 984 l 700 86 l 751 58 l 751 0 m 584 486 l 454 579 l 425 579 b 193 347 297 579 193 475 b 425 115 193 219 297 115 l 455 115 l 584 208 l 584 486 "},"¨":{"x_min":175,"x_max":658.328125,"ha":833,"o":"m 491 1026 l 491 868 l 658 868 l 658 968 l 598 1026 l 491 1026 m 175 1026 l 175 868 l 341 868 l 341 968 l 281 1026 l 175 1026 "},"Ô":{"x_min":77.78125,"x_max":754.171875,"ha":833,"o":"m 683 906 b 600 1002 659 947 631 979 b 483 1043 563 1029 523 1043 l 348 1043 b 231 1002 308 1043 268 1029 b 148 906 200 979 172 947 b 77 619 102 829 77 726 l 77 423 b 148 136 77 315 102 213 b 231 40 172 95 200 62 b 348 0 268 13 308 0 l 483 0 b 600 40 523 0 563 13 b 683 136 631 62 659 95 b 754 423 729 213 754 315 l 754 619 b 683 906 754 726 729 829 m 638 423 b 583 194 638 337 618 254 b 483 115 554 144 518 115 l 348 115 b 248 194 313 115 277 144 b 193 423 213 254 194 337 l 193 619 b 248 848 193 705 213 788 b 348 926 277 898 313 926 l 483 926 b 583 848 518 926 554 898 b 638 619 618 788 638 705 l 638 423 m 180 1143 l 213 1095 l 434 1250 l 448 1330 l 415 1344 l 369 1344 l 180 1143 m 415 1344 l 381 1330 l 395 1250 l 616 1095 l 650 1143 l 461 1344 l 415 1344 "},"E":{"x_min":77.78125,"x_max":752.78125,"ha":833,"o":"m 752 1041 l 77 1041 l 77 984 l 129 956 l 129 84 l 77 58 l 77 0 l 752 0 l 752 56 l 695 115 l 244 101 l 244 525 l 556 525 l 615 583 l 615 640 l 244 640 l 244 940 l 695 926 l 752 986 l 752 1041 "},"Y":{"x_min":79.171875,"x_max":754.171875,"ha":833,"o":"m 645 1041 l 587 984 l 587 673 b 416 575 522 672 458 625 b 245 673 375 625 312 672 l 245 984 l 187 1041 l 79 1041 l 79 984 l 130 956 l 130 694 l 202 597 l 218 597 b 245 593 227 597 236 595 b 304 561 266 587 287 576 b 358 441 340 530 358 487 l 475 441 b 519 551 475 488 490 520 b 630 597 548 581 588 595 l 702 694 l 702 956 l 754 984 l 754 1041 l 645 1041 m 358 480 l 358 115 l 244 56 l 244 0 l 358 0 l 416 29 l 475 0 l 588 0 l 588 56 l 475 115 l 475 480 l 358 480 "},"\"":{"x_min":222.21875,"x_max":611.109375,"ha":833,"o":"m 472 1072 l 472 775 l 551 775 l 611 833 l 611 1072 l 472 1072 m 222 1072 l 222 775 l 301 775 l 361 833 l 361 1072 l 222 1072 "},"‹":{"x_min":291.671875,"x_max":541.671875,"ha":833,"o":"m 291 383 l 305 350 l 386 363 l 541 583 l 494 616 l 291 429 l 291 383 m 491 147 l 538 180 l 386 402 l 305 416 l 291 383 l 291 337 l 491 147 "},"ê":{"x_min":77.78125,"x_max":751.390625,"ha":833,"o":"m 751 569 l 751 288 l 201 288 b 425 115 226 188 318 115 l 615 115 l 751 212 l 751 126 l 661 0 l 425 0 b 179 101 333 0 245 36 b 77 347 113 166 77 254 b 179 593 77 440 113 527 b 425 694 245 658 333 694 l 661 694 l 751 569 m 425 579 b 201 405 318 579 226 505 l 651 405 l 651 552 l 615 579 l 425 579 m 415 1108 l 381 1094 l 395 1013 l 616 859 l 650 906 l 461 1108 l 415 1108 m 180 906 l 213 859 l 434 1013 l 448 1094 l 415 1108 l 369 1108 l 180 906 "},"Ï":{"x_min":77.78125,"x_max":752.78125,"ha":833,"o":"m 752 1041 l 77 1041 l 77 984 l 186 926 l 366 926 l 366 115 l 186 115 l 77 58 l 77 0 l 752 0 l 752 56 l 695 115 l 481 115 l 481 926 l 695 926 l 752 986 l 752 1041 m 175 1304 l 175 1145 l 341 1145 l 341 1245 l 281 1304 l 175 1304 m 491 1304 l 491 1145 l 658 1145 l 658 1245 l 598 1304 l 491 1304 "},"„":{"x_min":222.21875,"x_max":612.5,"ha":833,"o":"m 472 238 l 473 -58 l 552 -58 l 612 0 l 611 238 l 472 238 m 222 238 l 223 -58 l 302 -58 l 362 0 l 361 238 l 222 238 "},"Â":{"x_min":79.171875,"x_max":754.171875,"ha":833,"o":"m 247 695 b 416 922 247 802 319 895 b 586 695 515 895 586 802 l 586 58 l 645 0 l 754 0 l 754 58 l 702 86 l 702 695 b 600 943 702 788 666 876 b 416 1041 565 977 513 1025 b 233 943 319 1025 268 977 b 130 695 166 876 130 788 l 130 86 l 79 58 l 79 0 l 187 0 l 247 58 l 247 695 m 225 463 l 608 463 l 608 579 l 225 579 l 225 463 m 180 1143 l 213 1095 l 434 1250 l 448 1330 l 415 1344 l 369 1344 l 180 1143 m 415 1344 l 381 1330 l 395 1250 l 616 1095 l 650 1143 l 461 1344 l 415 1344 "},"´":{"x_min":287.5,"x_max":555.5625,"ha":833,"o":"m 287 920 l 320 873 l 541 1027 l 555 1108 l 522 1155 l 476 1122 l 287 920 "},"Í":{"x_min":77.78125,"x_max":752.78125,"ha":833,"o":"m 752 1041 l 77 1041 l 77 984 l 186 926 l 366 926 l 366 115 l 186 115 l 77 58 l 77 0 l 752 0 l 752 56 l 695 115 l 481 115 l 481 926 l 695 926 l 752 986 l 752 1041 m 287 1129 l 320 1081 l 541 1236 l 555 1316 l 522 1363 l 476 1330 l 287 1129 "},"ì":{"x_min":77.78125,"x_max":754.171875,"ha":833,"o":"m 695 116 l 587 88 l 533 115 l 533 634 l 475 694 l 147 694 l 147 622 l 416 595 l 416 115 l 354 83 l 136 116 l 77 56 l 77 1 l 136 1 l 302 1 l 416 1 l 475 29 l 533 1 l 647 1 l 695 1 l 754 1 l 754 56 l 695 116 m 545 920 l 512 873 l 291 1027 l 277 1108 l 311 1155 l 356 1122 l 545 920 "},"±":{"x_min":86.109375,"x_max":747.21875,"ha":833,"o":"m 356 902 l 356 208 l 473 208 l 473 902 l 356 902 m 100 58 l 100 0 l 676 0 l 733 58 l 733 115 l 676 115 l 100 58 m 690 625 l 86 568 l 86 509 l 690 509 l 747 568 l 747 625 l 690 625 "},"Ú":{"x_min":77.78125,"x_max":752.78125,"ha":833,"o":"m 752 1041 l 643 1041 l 586 984 l 587 425 b 531 194 587 337 566 254 b 431 116 502 145 466 116 l 400 116 b 300 194 365 116 329 145 b 244 425 265 254 244 337 l 244 984 l 187 1041 l 77 1041 l 77 984 l 129 958 l 129 425 b 200 136 129 316 154 213 b 283 40 223 95 251 63 b 400 1 319 15 359 1 l 431 1 b 548 40 472 1 512 15 b 631 136 580 63 608 95 b 702 425 677 213 702 316 l 701 958 l 752 984 l 752 1041 m 287 1129 l 320 1081 l 541 1236 l 555 1316 l 522 1363 l 476 1330 l 287 1129 "},"|":{"x_min":356.9375,"x_max":473.609375,"ha":833,"o":"m 356 -83 l 356 1111 l 473 1111 l 473 -83 l 356 -83 "},"§":{"x_min":80.5625,"x_max":755.5625,"ha":833,"o":"m 641 836 l 698 720 l 755 720 l 755 836 l 698 951 l 323 951 b 80 708 190 951 80 843 l 80 668 l 633 462 b 512 359 616 411 569 356 l 194 373 l 262 256 l 512 256 b 755 500 645 256 755 366 l 755 540 l 202 745 b 323 850 218 798 266 852 l 641 836 m 641 462 l 677 390 l 727 488 l 629 577 l 323 577 b 80 334 190 577 80 469 l 80 294 l 633 88 b 512 -13 616 37 569 -16 l 194 0 l 137 113 l 80 113 l 80 -1 l 137 -116 l 512 -116 b 755 126 645 -116 755 -6 l 755 166 l 202 372 b 323 476 218 425 266 479 l 641 462 "},"Ý":{"x_min":79.171875,"x_max":754.171875,"ha":833,"o":"m 645 1041 l 587 984 l 587 673 b 416 575 522 672 458 625 b 245 673 375 625 312 672 l 245 984 l 187 1041 l 79 1041 l 79 984 l 130 956 l 130 694 l 202 597 l 218 597 b 245 593 227 597 236 595 b 304 561 266 587 287 576 b 358 441 340 530 358 487 l 475 441 b 519 551 476 483 490 520 b 630 597 548 581 588 595 l 702 694 l 702 956 l 754 984 l 754 1041 l 645 1041 m 358 480 l 358 115 l 244 56 l 244 0 l 358 0 l 416 29 l 475 0 l 588 0 l 588 56 l 475 115 l 475 480 l 358 480 m 287 1129 l 320 1081 l 541 1236 l 555 1316 l 522 1363 l 476 1330 l 287 1129 "},"b":{"x_min":77.78125,"x_max":751.390625,"ha":833,"o":"m 416 694 b 650 593 505 691 587 655 b 751 347 715 527 751 440 b 650 101 751 254 715 168 b 404 0 584 36 497 0 l 327 0 l 244 116 l 244 0 l 77 0 l 77 58 l 129 84 l 129 956 l 77 984 l 77 1041 l 186 1041 l 244 984 l 244 580 l 315 677 l 327 694 l 416 694 m 404 115 b 636 347 531 115 636 219 b 404 579 636 475 531 579 l 373 579 l 244 486 l 244 206 l 373 115 l 404 115 "},"q":{"x_min":77.78125,"x_max":750,"ha":833,"o":"m 700 -262 l 750 -290 l 750 -347 l 643 -347 l 583 -290 l 583 113 l 500 0 l 425 0 b 179 101 331 0 245 36 b 77 347 113 166 77 254 b 179 593 77 440 113 526 b 425 694 245 658 331 694 l 501 694 l 583 577 l 583 636 l 643 694 l 750 694 l 750 636 l 700 609 l 700 -262 m 583 487 l 454 579 l 425 579 b 193 347 297 579 193 475 b 425 115 193 219 297 115 l 454 115 l 583 208 l 583 487 "},"Ö":{"x_min":77.78125,"x_max":754.171875,"ha":833,"o":"m 683 906 b 600 1002 659 947 631 979 b 483 1043 563 1029 523 1043 l 348 1043 b 231 1002 308 1043 268 1029 b 148 906 200 979 172 947 b 77 619 102 829 77 726 l 77 423 b 148 136 77 315 102 213 b 231 40 172 95 200 62 b 348 0 268 13 308 0 l 483 0 b 600 40 523 0 563 13 b 683 136 631 62 659 95 b 754 423 729 213 754 315 l 754 619 b 683 906 754 726 729 829 m 638 423 b 583 194 638 337 618 254 b 483 115 554 144 518 115 l 348 115 b 248 194 313 115 277 144 b 193 423 213 254 194 337 l 193 619 b 248 848 193 705 213 788 b 348 926 277 898 313 926 l 483 926 b 583 848 518 926 554 898 b 638 619 618 788 638 705 l 638 423 m 175 1304 l 175 1145 l 341 1145 l 341 1245 l 281 1304 l 175 1304 m 491 1304 l 491 1145 l 658 1145 l 658 1245 l 598 1304 l 491 1304 "},"z":{"x_min":77.78125,"x_max":754.171875,"ha":833,"o":"m 754 576 l 752 579 l 695 694 l 134 694 l 77 579 l 77 463 l 134 463 l 194 583 l 744 580 l 693 602 l 77 186 l 77 115 l 134 0 l 695 0 l 752 115 l 752 230 l 695 230 l 636 112 l 86 112 l 131 87 l 754 509 l 754 576 "},"™":{"x_min":62.5,"x_max":770.828125,"ha":833,"o":"m 629 1055 l 622 1027 b 611 1038 618 1031 615 1036 b 563 1055 597 1050 580 1055 l 520 1055 l 516 1045 l 506 1055 l 438 1055 l 438 1008 l 461 995 l 461 618 l 438 606 l 438 558 l 506 558 l 541 593 l 541 944 l 568 976 l 563 976 b 580 908 559 976 580 956 l 561 756 l 593 720 l 643 720 l 665 766 l 641 779 l 661 905 b 656 951 661 920 659 937 l 669 966 b 679 933 672 959 676 948 b 691 806 686 897 691 852 b 679 681 691 761 686 716 b 659 631 672 651 665 638 l 659 559 b 729 591 693 551 719 576 b 752 650 738 605 747 626 b 770 806 765 691 770 747 b 752 966 770 865 765 923 b 729 1022 747 987 738 1008 b 673 1055 711 1050 687 1055 l 629 1055 m 188 1013 l 188 631 l 137 605 l 137 558 l 205 558 l 229 569 l 252 558 l 320 558 l 320 605 l 269 631 l 269 1013 l 188 1013 m 93 1055 l 62 993 l 62 923 l 109 923 l 134 976 l 216 976 l 248 976 l 320 976 l 345 923 l 394 923 l 394 993 l 362 1055 l 93 1055 "},"ã":{"x_min":77.78125,"x_max":754.171875,"ha":833,"o":"m 754 1 l 645 1 l 586 58 l 523 1 l 427 1 b 191 59 340 1 255 22 b 111 130 158 79 130 102 b 77 230 88 161 77 195 b 111 331 77 266 88 301 b 191 402 130 359 158 383 b 427 461 255 440 340 461 l 495 461 l 586 379 l 586 466 b 537 543 586 481 580 515 b 391 579 500 569 447 579 b 245 538 336 579 283 565 b 222 520 236 533 229 526 l 144 605 b 180 636 155 616 166 626 b 391 695 237 673 312 695 b 602 640 470 695 545 677 b 673 568 633 619 656 595 b 702 466 693 537 702 501 l 702 86 l 754 58 l 754 1 m 586 302 l 468 345 l 427 345 b 251 302 361 345 297 330 b 193 230 213 281 193 255 b 251 159 193 206 213 180 b 427 116 297 131 361 116 l 468 116 l 586 158 l 586 302 m 498 877 l 531 891 l 518 972 l 351 1072 l 318 1025 l 452 877 l 498 877 m 384 1025 l 351 1072 l 187 972 l 187 877 l 252 877 l 384 1025 m 676 1025 l 643 1072 l 479 972 l 465 891 l 498 877 l 544 877 l 676 1025 "},"®":{"x_min":77.78125,"x_max":754.171875,"ha":833,"o":"m 683 558 b 754 354 729 480 754 433 l 754 340 b 683 136 754 259 729 213 b 600 40 659 95 631 62 b 483 0 563 13 523 0 l 348 0 b 231 40 308 0 268 13 b 148 136 200 62 172 95 b 77 340 102 213 77 259 l 77 354 b 148 558 77 433 102 480 b 231 654 172 598 200 630 b 348 694 268 680 308 694 l 483 694 b 600 654 523 694 563 680 b 683 558 631 630 659 598 m 659 354 b 601 511 659 419 636 451 b 483 598 569 563 525 598 l 348 598 b 230 511 306 598 262 563 b 172 354 195 451 172 419 l 172 340 b 230 183 172 275 195 241 b 348 94 261 130 306 94 l 483 94 b 601 183 525 94 570 130 b 659 340 636 241 659 275 l 659 354 m 483 159 b 462 243 483 190 476 222 b 418 280 448 262 431 280 l 384 280 l 358 280 l 358 131 l 277 131 l 277 166 l 298 177 l 298 518 l 277 529 l 277 562 l 387 563 l 419 563 b 516 525 456 562 490 548 b 561 425 545 498 561 462 b 516 326 561 387 545 351 b 413 287 490 300 451 286 l 390 327 b 470 313 416 333 444 329 b 511 277 484 305 498 293 b 544 161 533 245 544 204 l 502 147 l 498 198 l 559 166 l 559 131 l 511 131 l 483 159 m 358 504 l 358 345 l 415 345 b 500 425 463 345 500 380 b 415 504 500 469 463 504 l 398 504 l 358 504 "},"É":{"x_min":77.78125,"x_max":752.78125,"ha":833,"o":"m 752 1041 l 77 1041 l 77 984 l 129 956 l 129 84 l 77 58 l 77 0 l 752 0 l 752 56 l 695 115 l 244 101 l 244 525 l 556 525 l 615 583 l 615 640 l 244 640 l 244 940 l 695 926 l 752 986 l 752 1041 m 287 1129 l 320 1081 l 541 1236 l 555 1316 l 522 1363 l 476 1330 l 287 1129 "},"~":{"x_min":172.21875,"x_max":661.109375,"ha":833,"o":"m 483 365 l 516 379 l 502 459 l 336 559 l 302 512 l 437 365 l 483 365 m 369 512 l 336 559 l 172 459 l 172 365 l 237 365 l 369 512 m 661 512 l 627 559 l 463 459 l 450 379 l 483 365 l 529 365 l 661 512 "},"¡":{"x_min":333.328125,"x_max":500,"ha":833,"o":"m 393 -347 l 333 -288 l 333 394 l 440 394 l 500 -288 l 500 -347 l 393 -347 m 333 694 l 333 536 l 440 536 l 500 616 l 500 694 l 333 694 "},"[":{"x_min":251.390625,"x_max":636.109375,"ha":833,"o":"m 251 1041 l 308 1100 l 577 1100 l 636 1041 l 636 984 l 366 984 l 366 56 l 636 56 l 636 0 l 577 -58 l 308 -58 l 251 0 l 251 1041 "},"L":{"x_min":77.78125,"x_max":752.78125,"ha":833,"o":"m 244 98 l 244 984 l 186 1041 l 77 1041 l 77 984 l 129 956 l 129 84 l 77 58 l 77 0 l 752 0 l 752 56 l 695 115 l 244 98 "}," ":{"x_min":0,"x_max":0,"ha":833},"%":{"x_min":55.5625,"x_max":777.78125,"ha":833,"o":"m 755 1015 l 179 -26 l 77 29 l 654 1072 l 755 1015 m 611 347 b 777 180 702 347 777 272 b 611 13 777 88 702 13 b 444 180 519 13 444 88 b 611 347 444 272 519 347 m 611 250 b 541 180 573 250 541 219 b 611 111 541 141 573 111 b 680 180 650 111 680 141 b 611 250 680 219 650 250 m 222 1026 b 388 859 313 1026 388 951 b 222 693 388 768 313 693 b 55 859 130 693 55 768 b 222 1026 55 951 130 1026 m 222 929 b 152 859 184 929 152 898 b 222 790 152 820 184 790 b 291 859 261 790 291 820 b 222 929 291 898 261 929 "},"P":{"x_min":77.78125,"x_max":751.390625,"ha":833,"o":"m 648 948 b 751 713 715 886 751 802 b 648 479 751 625 715 541 b 404 384 583 418 497 384 l 244 384 l 244 0 l 77 0 l 77 58 l 129 84 l 129 956 l 77 984 l 77 1041 l 186 1041 l 244 984 l 336 1043 l 404 1043 l 416 1043 b 648 948 504 1040 586 1006 m 404 500 b 636 713 531 500 636 595 b 404 927 636 831 531 927 l 363 927 l 244 906 l 244 500 l 404 500 "},"À":{"x_min":77.78125,"x_max":752.78125,"ha":833,"o":"m 245 695 b 415 922 245 802 318 895 b 584 695 513 895 584 802 l 584 58 l 644 0 l 752 0 l 752 58 l 701 86 l 701 695 b 598 943 701 788 665 876 b 415 1041 563 977 512 1025 b 231 943 318 1025 266 977 b 129 695 165 876 129 788 l 129 86 l 77 58 l 77 0 l 186 0 l 245 58 l 245 695 m 223 463 l 606 463 l 606 579 l 223 579 l 223 463 m 545 1129 l 512 1081 l 291 1236 l 277 1316 l 311 1363 l 356 1330 l 545 1129 "},"_":{"x_min":86.109375,"x_max":747.21875,"ha":833,"o":"m 86 -166 l 86 -225 l 690 -225 l 747 -166 l 747 -109 l 690 -109 l 86 -166 "},"ñ":{"x_min":77.78125,"x_max":752.78125,"ha":833,"o":"m 702 84 l 702 395 b 615 606 702 476 672 551 b 416 694 562 661 491 691 l 327 694 l 244 580 l 244 638 l 186 695 l 77 695 l 77 638 l 129 611 l 129 84 l 77 58 l 77 0 l 186 0 l 244 58 l 244 486 l 373 579 l 404 579 b 587 395 505 579 587 497 l 587 58 l 644 0 l 752 0 l 752 58 l 702 84 m 498 877 l 531 891 l 518 972 l 351 1072 l 318 1025 l 452 877 l 498 877 m 384 1025 l 351 1072 l 187 972 l 187 877 l 252 877 l 384 1025 m 676 1025 l 643 1072 l 479 972 l 465 891 l 498 877 l 544 877 l 676 1025 "},"+":{"x_min":84.71875,"x_max":745.828125,"ha":833,"o":"m 355 902 l 355 208 l 472 208 l 472 902 l 355 902 m 688 625 l 84 568 l 84 509 l 688 509 l 745 568 l 745 625 l 688 625 "},"‚":{"x_min":347.21875,"x_max":486.109375,"ha":833,"o":"m 347 275 l 347 -69 l 413 -69 l 486 0 l 486 275 l 347 275 "},"Ë":{"x_min":77.78125,"x_max":752.78125,"ha":833,"o":"m 752 1041 l 77 1041 l 77 984 l 129 956 l 129 84 l 77 58 l 77 0 l 752 0 l 752 56 l 695 115 l 244 101 l 244 525 l 556 525 l 615 583 l 615 640 l 244 640 l 244 940 l 695 926 l 752 986 l 752 1041 m 175 1290 l 175 1131 l 341 1131 l 341 1231 l 281 1290 l 175 1290 m 491 1290 l 491 1131 l 658 1131 l 658 1231 l 598 1290 l 491 1290 "},"'":{"x_min":333.328125,"x_max":472.21875,"ha":833,"o":"m 333 1041 l 333 697 l 400 697 l 472 766 l 472 1041 l 333 1041 "},"T":{"x_min":77.78125,"x_max":752.78125,"ha":833,"o":"m 475 948 l 475 115 l 588 56 l 588 0 l 244 0 l 244 56 l 358 115 l 358 948 l 475 948 m 388 926 l 188 926 l 133 811 l 77 811 l 77 926 l 133 1041 l 694 1041 l 752 926 l 752 811 l 694 811 l 638 926 l 459 926 l 388 926 m 366 926 l 481 926 l 366 926 "},"j":{"x_min":77.78125,"x_max":751.390625,"ha":833,"o":"m 193 694 l 193 623 l 584 577 l 584 -75 l 455 -231 l 426 -231 b 193 1 298 -231 193 -126 l 77 1 b 180 -244 77 -91 113 -179 b 426 -347 245 -311 333 -347 l 502 -347 l 700 -75 l 700 609 l 751 636 l 751 694 l 193 694 m 641 926 l 700 926 l 700 983 l 641 1041 l 533 1041 l 533 983 l 641 926 "},"1":{"x_min":77.78125,"x_max":752.78125,"ha":833,"o":"m 481 984 l 368 1041 l 77 998 l 77 926 l 366 926 l 366 115 l 186 115 l 77 58 l 77 0 l 752 0 l 752 56 l 695 115 l 481 115 l 481 926 l 481 984 "},"›":{"x_min":291.671875,"x_max":541.671875,"ha":833,"o":"m 541 376 l 527 409 l 447 395 l 291 176 l 338 143 l 541 330 l 541 376 m 341 612 l 294 579 l 447 356 l 527 343 l 541 376 l 541 422 l 341 612 "},"ä":{"x_min":77.78125,"x_max":754.171875,"ha":833,"o":"m 754 1 l 645 1 l 586 58 l 523 1 l 427 1 b 191 59 340 1 255 22 b 111 130 158 79 130 102 b 77 230 88 161 77 195 b 111 331 77 266 88 301 b 191 402 130 359 158 383 b 427 461 255 440 340 461 l 495 461 l 586 379 l 586 466 b 537 543 586 481 580 515 b 391 579 500 569 447 579 b 245 538 336 579 283 565 b 222 520 236 533 229 526 l 144 605 b 180 636 155 616 166 626 b 391 695 237 673 312 695 b 602 640 470 695 545 677 b 673 568 633 619 656 595 b 702 466 693 537 702 501 l 702 86 l 754 58 l 754 1 m 586 302 l 468 345 l 427 345 b 251 302 361 345 297 330 b 193 230 213 281 193 255 b 251 159 193 206 213 180 b 427 116 297 131 361 116 l 468 116 l 586 158 l 586 302 m 491 1026 l 491 868 l 658 868 l 658 968 l 598 1026 l 491 1026 m 175 1026 l 175 868 l 341 868 l 341 968 l 281 1026 l 175 1026 "},"<":{"x_min":116.671875,"x_max":716.671875,"ha":833,"o":"m 116 513 l 116 477 l 195 459 l 716 741 l 687 791 l 134 555 l 116 513 m 687 202 l 716 250 l 195 533 l 116 513 l 116 477 l 134 434 l 687 202 "},"£":{"x_min":100,"x_max":733.328125,"ha":833,"o":"m 297 279 l 412 420 l 412 520 b 488 818 412 633 440 738 b 644 926 533 887 587 926 l 644 1041 b 500 995 594 1041 544 1026 b 390 879 458 968 422 927 b 297 520 330 781 297 655 l 297 279 m 100 58 l 156 0 l 733 0 l 733 63 l 100 120 l 100 58 m 297 420 b 241 190 297 333 276 250 b 152 115 215 147 183 119 l 150 108 l 258 37 b 341 131 290 61 318 91 b 412 420 387 209 412 312 l 297 420 m 169 581 l 169 523 l 587 523 l 644 581 l 644 638 l 587 638 l 169 581 "},"t":{"x_min":77.78125,"x_max":755.5625,"ha":833,"o":"m 77 593 l 77 522 l 298 522 l 298 244 l 497 0 l 572 0 b 754 50 637 0 700 18 l 754 202 b 572 115 711 150 645 115 l 547 115 l 413 244 l 413 522 l 697 522 l 755 580 l 755 637 l 697 637 l 77 593 m 413 595 l 413 834 l 356 951 l 298 951 l 298 584 l 413 595 "},"ù":{"x_min":80.5625,"x_max":755.5625,"ha":833,"o":"m 755 637 l 755 695 l 647 695 l 588 637 l 588 209 l 459 116 l 429 116 b 245 298 327 116 245 198 l 245 637 l 188 694 l 80 695 l 80 637 l 130 611 l 130 298 b 218 87 130 219 161 144 b 416 0 270 34 341 4 l 505 0 l 588 115 l 588 58 l 647 0 l 755 0 l 755 58 l 704 86 l 704 609 l 755 637 m 545 920 l 512 873 l 291 1027 l 277 1108 l 311 1155 l 356 1122 l 545 920 "},"W":{"x_min":79.171875,"x_max":754.171875,"ha":833,"o":"m 586 984 l 586 222 b 583 220 586 220 583 220 b 559 204 575 215 566 209 b 522 161 545 191 533 176 b 488 201 512 176 501 188 l 479 209 b 473 212 479 209 473 212 l 473 636 l 415 694 l 358 694 l 358 218 b 358 212 358 216 358 213 b 309 161 338 198 323 180 b 276 201 300 176 288 188 b 256 216 270 206 263 212 b 245 222 255 216 245 222 l 245 984 l 187 1041 l 79 1041 l 79 984 l 129 956 l 129 197 b 252 0 223 162 252 93 l 368 0 l 369 25 b 384 104 370 51 375 77 b 401 137 388 115 393 127 b 416 155 404 144 411 152 b 425 148 418 155 423 150 b 437 130 429 143 433 137 b 454 84 444 116 450 101 b 462 36 458 69 462 52 l 463 15 l 465 5 l 465 0 l 580 0 b 702 197 580 93 608 162 l 702 958 l 754 984 l 754 1041 l 644 1041 l 586 984 "},"ï":{"x_min":77.78125,"x_max":754.171875,"ha":833,"o":"m 695 116 l 587 88 l 533 115 l 533 634 l 475 694 l 147 694 l 147 622 l 416 595 l 416 115 l 354 83 l 136 116 l 77 56 l 77 1 l 136 1 l 302 1 l 416 1 l 475 29 l 533 1 l 647 1 l 695 1 l 754 1 l 754 56 l 695 116 m 491 1026 l 491 868 l 658 868 l 658 968 l 598 1026 l 491 1026 m 175 1026 l 175 868 l 341 868 l 341 968 l 281 1026 l 175 1026 "},">":{"x_min":115.28125,"x_max":715.28125,"ha":833,"o":"m 145 791 l 115 744 l 636 459 l 715 479 l 715 515 l 697 558 l 145 791 m 715 479 l 715 515 l 636 533 l 115 252 l 145 202 l 697 437 l 715 479 "},"v":{"x_min":79.171875,"x_max":754.171875,"ha":833,"o":"m 587 637 l 587 231 b 416 133 522 218 458 183 b 245 231 375 183 312 218 l 245 637 l 187 694 l 79 694 l 79 637 l 130 609 l 130 155 b 358 0 241 155 358 116 l 475 0 b 702 155 475 111 591 155 l 702 609 l 754 637 l 754 694 l 645 694 l 587 637 "},"û":{"x_min":80.5625,"x_max":755.5625,"ha":833,"o":"m 755 637 l 755 695 l 647 695 l 588 637 l 588 209 l 459 116 l 429 116 b 245 298 327 116 245 198 l 245 637 l 188 694 l 80 695 l 80 637 l 130 611 l 130 298 b 218 87 130 219 161 144 b 416 0 270 34 341 4 l 505 0 l 588 115 l 588 58 l 647 0 l 755 0 l 755 58 l 704 86 l 704 609 l 755 637 m 415 1108 l 381 1094 l 395 1013 l 616 859 l 650 906 l 461 1108 l 415 1108 m 180 906 l 213 859 l 434 1013 l 448 1094 l 415 1108 l 369 1108 l 180 906 "},"Ò":{"x_min":77.78125,"x_max":754.171875,"ha":833,"o":"m 683 906 b 600 1002 659 947 631 979 b 483 1043 563 1029 523 1043 l 348 1043 b 231 1002 308 1043 268 1029 b 148 906 200 979 172 947 b 77 619 102 829 77 726 l 77 423 b 148 136 77 315 102 213 b 231 40 172 95 200 62 b 348 0 268 13 308 0 l 483 0 b 600 40 523 0 563 13 b 683 136 631 62 659 95 b 754 423 729 213 754 315 l 754 619 b 683 906 754 726 729 829 m 638 423 b 583 194 638 337 618 254 b 483 115 554 144 518 115 l 348 115 b 248 194 313 115 277 144 b 193 423 213 254 194 337 l 193 619 b 248 848 193 705 213 788 b 348 926 277 898 313 926 l 483 926 b 583 848 518 926 554 898 b 638 619 618 788 638 705 l 638 423 m 545 1129 l 512 1081 l 291 1236 l 277 1316 l 311 1363 l 356 1330 l 545 1129 "},"&":{"x_min":80.5625,"x_max":755.5625,"ha":833,"o":"m 755 470 l 638 470 l 638 243 l 452 525 b 694 783 587 537 694 648 b 427 1043 694 926 575 1043 b 223 966 319 1043 256 1001 b 155 783 179 920 155 856 l 155 766 l 263 602 b 184 548 234 587 208 570 b 108 447 152 519 126 484 b 80 320 90 406 80 363 b 108 193 80 276 90 233 b 184 91 126 155 152 120 b 427 0 250 31 336 0 l 537 0 l 615 68 l 659 1 l 755 65 l 704 144 l 755 188 l 755 470 m 427 115 b 197 320 300 115 197 206 b 327 504 197 401 250 470 l 551 165 l 494 115 l 427 115 m 427 927 b 579 783 511 927 579 862 b 427 640 579 704 511 640 b 379 637 411 640 395 638 l 272 800 b 427 927 276 861 309 927 "},"I":{"x_min":77.78125,"x_max":752.78125,"ha":833,"o":"m 752 1041 l 77 1041 l 77 984 l 186 926 l 366 926 l 366 115 l 186 115 l 77 58 l 77 0 l 752 0 l 752 56 l 695 115 l 481 115 l 481 926 l 695 926 l 752 986 l 752 1041 "},"G":{"x_min":77.78125,"x_max":751.390625,"ha":833,"o":"m 751 500 l 694 558 l 340 558 l 340 502 l 398 443 l 636 465 l 636 241 l 491 115 l 425 115 b 269 225 368 115 313 154 b 193 522 220 302 193 408 b 269 819 193 634 220 740 b 425 927 313 888 368 927 l 491 927 l 670 770 l 751 855 l 534 1043 l 425 1043 b 280 997 375 1043 325 1027 b 170 880 238 969 202 929 b 77 522 111 783 77 656 b 170 162 77 387 111 259 b 280 45 202 113 238 75 b 425 0 325 15 375 0 l 534 0 l 751 188 l 751 500 "},"`":{"x_min":277.78125,"x_max":545.828125,"ha":833,"o":"m 545 920 l 512 873 l 291 1027 l 277 1108 l 311 1155 l 356 1122 l 545 920 "},"·":{"x_min":319.4375,"x_max":513.890625,"ha":833,"o":"m 319 506 l 319 320 l 513 320 l 513 448 l 454 506 l 319 506 "},"r":{"x_min":77.78125,"x_max":755.5625,"ha":833,"o":"m 384 693 l 306 584 l 306 637 l 193 694 l 77 694 l 77 637 l 191 580 l 191 113 l 77 56 l 77 0 l 191 0 l 250 29 l 306 0 l 422 0 l 422 56 l 306 113 l 306 487 l 430 576 l 512 576 b 638 450 581 576 638 519 l 755 450 b 512 693 755 583 645 693 l 384 693 "},"¿":{"x_min":79.171875,"x_max":752.78125,"ha":833,"o":"m 181 -252 b 425 -347 247 -313 333 -347 l 534 -347 l 752 -158 l 752 -4 l 490 -231 l 426 -231 b 194 -18 298 -231 194 -136 b 363 187 194 79 266 162 l 429 187 l 488 245 l 488 384 l 373 384 l 373 306 b 181 216 301 297 234 265 b 79 -18 115 154 79 70 b 181 -252 79 -106 115 -190 m 333 694 l 333 536 l 440 536 l 500 616 l 500 694 l 333 694 "},"ý":{"x_min":77.78125,"x_max":752.78125,"ha":833,"o":"m 644 694 l 586 636 l 586 208 l 456 115 l 426 115 b 243 298 325 115 243 197 l 243 636 l 186 694 l 77 694 l 77 636 l 127 609 l 127 298 b 215 87 127 218 158 143 b 413 0 268 33 338 2 l 502 0 l 586 113 l 586 -138 l 456 -231 l 426 -231 b 243 -48 325 -231 243 -150 l 127 -48 b 215 -259 127 -129 158 -204 b 413 -347 268 -313 338 -344 l 502 -347 l 515 -330 l 701 -138 l 701 609 l 752 636 l 752 694 l 644 694 m 287 920 l 320 873 l 541 1027 l 555 1108 l 522 1155 l 476 1122 l 287 920 "},"x":{"x_min":77.78125,"x_max":756.953125,"ha":833,"o":"m 673 695 l 418 430 l 161 695 l 77 615 l 336 347 l 77 80 l 161 0 l 418 263 l 673 0 l 756 80 l 498 347 l 756 615 l 673 695 "},"è":{"x_min":77.78125,"x_max":751.390625,"ha":833,"o":"m 751 569 l 751 288 l 201 288 b 425 115 226 188 318 115 l 615 115 l 751 212 l 751 126 l 661 0 l 425 0 b 179 101 333 0 245 36 b 77 347 113 166 77 254 b 179 593 77 440 113 527 b 425 694 245 658 333 694 l 661 694 l 751 569 m 425 579 b 201 405 318 579 226 505 l 651 405 l 651 552 l 615 579 l 425 579 m 545 920 l 512 873 l 291 1027 l 277 1108 l 311 1155 l 356 1122 l 545 920 "},"÷":{"x_min":100,"x_max":733.328125,"ha":833,"o":"m 100 359 l 100 301 l 676 301 l 733 359 l 733 416 l 676 416 l 100 359 m 347 158 l 347 0 l 486 0 l 486 100 l 426 158 l 347 158 m 347 158 l 347 0 l 486 0 l 486 100 l 426 158 l 347 158 m 347 694 l 347 536 l 486 536 l 486 636 l 426 694 l 347 694 m 347 694 l 347 536 l 486 536 l 486 636 l 426 694 l 347 694 "},"h":{"x_min":77.78125,"x_max":752.78125,"ha":833,"o":"m 702 84 l 702 395 b 615 606 702 476 672 551 b 416 694 562 661 491 691 l 327 694 l 244 580 l 244 984 l 186 1041 l 77 1041 l 77 984 l 129 956 l 129 84 l 77 58 l 77 0 l 186 0 l 244 58 l 244 486 l 373 579 l 404 579 b 587 395 505 579 587 497 l 587 58 l 644 0 l 752 0 l 752 58 l 702 84 "},".":{"x_min":319.4375,"x_max":513.890625,"ha":833,"o":"m 319 186 l 319 0 l 513 0 l 513 127 l 440 186 l 319 186 "},";":{"x_min":304.171875,"x_max":534.71875,"ha":833,"o":"m 304 -12 l 366 -75 l 534 95 l 533 177 l 472 238 l 431 198 l 304 -12 m 344 694 l 344 536 l 511 536 l 511 636 l 451 694 l 344 694 "},"f":{"x_min":77.78125,"x_max":754.171875,"ha":833,"o":"m 77 594 l 77 522 l 290 522 l 290 115 l 176 56 l 176 0 l 290 0 l 348 29 l 406 0 l 520 0 l 520 56 l 406 115 l 406 522 l 640 522 l 697 581 l 697 638 l 640 638 l 77 594 m 406 600 l 406 769 l 538 926 l 565 926 b 754 827 643 926 712 887 l 754 986 b 565 1043 698 1023 633 1043 l 488 1043 l 477 1026 l 290 769 l 290 587 l 406 600 "},"“":{"x_min":223.609375,"x_max":612.5,"ha":833,"o":"m 612 765 l 612 1062 l 533 1062 l 473 1004 l 473 765 l 612 765 m 362 765 l 362 1062 l 283 1062 l 223 1004 l 223 765 l 362 765 "},"A":{"x_min":77.78125,"x_max":752.78125,"ha":833,"o":"m 245 695 b 415 922 245 802 318 895 b 584 695 513 895 584 802 l 584 58 l 644 0 l 752 0 l 752 58 l 701 86 l 701 695 b 598 943 701 788 665 876 b 415 1041 563 977 512 1025 b 231 943 318 1025 266 977 b 129 695 165 876 129 788 l 129 86 l 77 58 l 77 0 l 186 0 l 245 58 l 245 695 m 223 463 l 606 463 l 606 579 l 223 579 l 223 463 "},"6":{"x_min":77.78125,"x_max":751.390625,"ha":833,"o":"m 652 563 b 413 659 588 625 504 659 b 215 561 340 659 272 625 b 193 534 208 552 200 544 b 266 820 195 643 220 744 b 413 927 322 913 383 927 l 491 927 l 675 769 l 751 855 l 534 1043 l 413 1043 b 272 997 363 1043 316 1027 b 166 879 231 968 197 929 b 77 522 109 783 77 655 b 166 163 77 387 109 261 b 272 47 197 115 231 75 b 413 0 316 16 363 0 b 652 95 504 0 588 34 b 751 329 716 158 751 241 b 652 563 751 418 716 501 m 413 116 b 266 223 383 116 322 130 b 220 329 248 255 231 290 b 413 543 259 458 334 543 b 636 329 536 543 636 447 b 413 116 636 212 536 116 "},"‘":{"x_min":345.828125,"x_max":484.71875,"ha":833,"o":"m 484 695 l 484 1041 l 418 1041 l 345 970 l 345 695 l 484 695 "},"O":{"x_min":77.78125,"x_max":754.171875,"ha":833,"o":"m 683 906 b 754 619 729 829 754 726 l 754 423 b 683 136 754 315 729 213 b 600 40 659 95 631 62 b 483 0 563 13 523 0 l 348 0 b 231 40 308 0 268 13 b 148 136 200 62 172 95 b 77 423 102 213 77 315 l 77 619 b 148 906 77 726 102 829 b 231 1002 172 947 200 979 b 348 1043 268 1029 308 1043 l 483 1043 b 600 1002 523 1043 563 1029 b 683 906 631 979 659 947 m 638 619 b 583 848 638 705 618 788 b 483 926 554 898 518 926 l 348 926 b 248 848 313 926 277 898 b 193 619 213 788 193 705 l 193 423 b 248 194 194 337 213 254 b 348 115 277 144 313 115 l 483 115 b 583 194 518 115 554 144 b 638 423 618 254 638 337 l 638 619 "},"n":{"x_min":77.78125,"x_max":752.78125,"ha":833,"o":"m 702 84 l 702 395 b 615 606 702 476 672 551 b 416 694 562 661 491 691 l 327 694 l 244 580 l 244 638 l 186 695 l 77 695 l 77 638 l 129 611 l 129 84 l 77 58 l 77 0 l 186 0 l 244 58 l 244 486 l 373 579 l 404 579 b 587 395 505 579 587 497 l 587 58 l 644 0 l 752 0 l 752 58 l 702 84 "},"3":{"x_min":77.78125,"x_max":752.78125,"ha":833,"o":"m 662 495 b 630 520 652 504 641 512 b 662 545 641 529 652 537 b 752 752 720 601 752 673 b 662 958 752 830 720 902 b 448 1041 605 1012 529 1041 l 319 1041 l 77 829 l 154 743 l 362 926 l 448 926 b 637 752 552 926 637 848 b 448 579 637 656 552 579 l 261 577 l 261 520 l 319 461 l 462 461 b 637 288 559 455 637 380 b 448 115 637 193 552 115 l 362 115 l 154 300 l 77 212 l 319 0 l 448 0 b 662 83 529 0 605 29 b 752 288 720 138 752 211 b 662 495 752 366 720 440 "},"9":{"x_min":77.78125,"x_max":751.390625,"ha":833,"o":"m 662 879 b 751 522 720 783 751 655 b 662 163 751 387 720 259 b 558 47 633 113 597 75 b 416 0 513 15 466 0 l 294 0 l 77 187 l 154 275 l 337 115 l 416 115 b 562 223 447 115 506 129 b 636 508 608 298 634 400 b 615 481 629 500 622 490 b 416 384 556 418 488 384 b 177 480 326 384 241 418 b 77 713 113 543 77 625 b 177 947 77 802 113 884 b 416 1043 241 1009 326 1043 b 558 995 466 1043 513 1027 b 662 879 597 968 633 929 m 416 500 b 609 713 494 500 569 584 b 562 819 597 752 581 788 b 416 927 506 913 447 927 b 193 713 293 927 193 831 b 416 500 193 595 293 500 "},"l":{"x_min":77.78125,"x_max":754.171875,"ha":833,"o":"m 587 87 l 533 113 l 533 983 l 475 1041 l 147 1041 l 147 970 l 416 944 l 416 113 l 354 83 l 136 115 l 77 55 l 77 0 l 416 0 l 475 29 l 533 0 l 754 0 l 754 55 l 695 115 l 587 87 "},"¤":{"x_min":77.78125,"x_max":756.953125,"ha":833,"o":"m 644 670 b 573 751 623 704 600 730 b 470 786 543 773 506 786 l 363 786 b 262 751 329 786 291 773 b 191 670 234 730 211 704 b 133 500 154 608 133 566 l 133 488 b 191 318 133 422 154 380 b 262 237 211 284 234 256 b 363 202 291 215 329 202 l 470 202 b 573 237 506 202 543 215 b 644 318 600 256 623 284 b 701 488 680 380 701 422 l 701 500 b 644 670 701 566 680 608 m 77 219 l 161 138 l 320 302 l 247 394 l 77 219 m 511 305 l 673 138 l 756 219 l 581 400 l 511 305 m 312 677 l 161 834 l 77 754 l 236 588 l 312 677 m 581 488 b 538 379 581 445 568 427 b 470 322 516 341 493 322 l 363 322 b 295 379 341 322 318 341 b 252 488 266 427 252 445 l 252 500 b 295 609 252 543 266 561 b 363 665 318 647 340 665 l 470 665 b 538 609 494 665 516 647 b 581 500 568 561 581 543 l 581 488 m 591 581 l 756 754 l 673 834 l 522 677 l 591 581 "},"4":{"x_min":77.78125,"x_max":752.78125,"ha":833,"o":"m 752 1041 l 644 1041 l 586 984 l 586 579 l 244 579 l 244 984 l 186 1041 l 77 1041 l 77 984 l 129 956 l 129 520 l 187 463 l 586 463 l 586 84 l 534 58 l 534 0 l 752 0 l 752 58 l 701 84 l 701 956 l 752 984 l 752 1041 "},"p":{"x_min":77.78125,"x_max":750,"ha":833,"o":"m 402 695 b 648 594 495 695 583 659 b 750 348 713 527 750 440 b 648 102 750 255 713 168 b 402 0 583 36 495 0 l 327 0 l 244 115 l 243 -288 l 243 -347 l 187 -347 l 129 -288 l 129 609 l 77 637 l 77 695 l 186 695 l 244 637 l 244 579 l 327 695 l 402 695 m 373 579 l 244 487 l 244 209 l 373 116 l 402 116 b 634 348 530 116 634 220 b 402 579 634 476 530 579 l 373 579 "},"‡":{"x_min":127.78125,"x_max":705.5625,"ha":833,"o":"m 356 1041 l 356 -83 l 473 -83 l 473 1041 l 356 1041 m 648 350 l 127 293 l 127 234 l 648 234 l 705 293 l 705 350 l 648 350 m 648 694 l 127 637 l 127 579 l 648 579 l 705 637 l 705 694 l 648 694 "},"à":{"x_min":77.78125,"x_max":754.171875,"ha":833,"o":"m 754 1 l 645 1 l 586 58 l 523 1 l 427 1 b 191 59 340 1 255 22 b 111 130 158 79 130 102 b 77 230 88 161 77 195 b 111 331 77 266 88 301 b 191 402 130 359 158 383 b 427 461 255 440 340 461 l 495 461 l 586 379 l 586 466 b 537 543 586 481 580 515 b 391 579 500 569 447 579 b 245 538 336 579 283 565 b 222 520 236 533 229 526 l 144 605 b 180 636 155 616 166 626 b 391 695 237 673 312 695 b 602 640 470 695 545 677 b 673 568 633 619 656 595 b 702 466 693 537 702 501 l 702 86 l 754 58 l 754 1 m 586 302 l 468 345 l 427 345 b 251 302 361 345 297 330 b 193 230 213 281 193 255 b 251 159 193 206 213 180 b 427 116 297 131 361 116 l 468 116 l 586 158 l 586 302 m 545 920 l 512 873 l 291 1027 l 277 1108 l 311 1155 l 356 1122 l 545 920 "},"Ü":{"x_min":77.78125,"x_max":752.78125,"ha":833,"o":"m 752 1041 l 643 1041 l 586 984 l 587 425 b 531 194 587 337 566 254 b 431 116 502 145 466 116 l 400 116 b 300 194 365 116 329 145 b 244 425 265 254 244 337 l 244 984 l 187 1041 l 77 1041 l 77 984 l 129 958 l 129 425 b 200 136 129 316 154 213 b 283 40 223 95 251 63 b 400 1 319 15 359 1 l 431 1 b 548 40 472 1 512 15 b 631 136 580 63 608 95 b 702 425 677 213 702 316 l 701 958 l 752 984 l 752 1041 m 175 1304 l 175 1145 l 341 1145 l 341 1245 l 281 1304 l 175 1304 m 491 1304 l 491 1145 l 658 1145 l 658 1245 l 598 1304 l 491 1304 "},"ó":{"x_min":77.78125,"x_max":754.171875,"ha":833,"o":"m 483 694 b 600 654 523 694 563 680 b 683 558 631 630 659 598 b 754 354 729 480 754 433 l 754 340 b 683 136 754 259 729 213 b 600 40 659 95 631 62 b 483 0 563 13 523 0 l 348 0 b 231 40 308 0 268 13 b 148 136 200 62 172 95 b 77 340 102 213 77 259 l 77 354 b 148 558 77 433 102 480 b 231 654 172 598 200 630 b 348 694 268 680 308 694 l 483 694 m 348 577 b 248 500 313 577 277 550 b 193 354 213 440 193 412 l 193 340 b 248 194 193 281 213 254 b 348 115 277 144 313 115 l 483 115 b 583 194 518 115 554 144 b 638 340 618 254 638 281 l 638 354 b 583 500 638 412 618 440 b 483 577 554 550 518 577 l 348 577 m 287 920 l 320 873 l 541 1027 l 555 1108 l 522 1155 l 476 1122 l 287 920 "}}}
